<?xml version="1.0" encoding="UTF-8"?>
<!DOCTYPE svg PUBLIC "-//W3C//DTD SVG 1.1//EN" "http://www.w3.org/Graphics/SVG/1.1/DTD/svg11.dtd">
<!-- Creator: CorelDRAW X8 -->
<svg xmlns="http://www.w3.org/2000/svg" xml:space="preserve" width="400px" height="200px" version="1.1" style="shape-rendering:geometricPrecision; text-rendering:geometricPrecision; image-rendering:optimizeQuality; fill-rule:evenodd; clip-rule:evenodd"
viewBox="0 0 400 200"
 xmlns:xlink="http://www.w3.org/1999/xlink">
 <defs>
  <style type="text/css">
   <![CDATA[
    .fil1 {fill:#FF6F36}
    .fil0 {fill:#FF6F36;fill-rule:nonzero}
   ]]>
  </style>
 </defs>
 <g id="Слой_x0020_1">
  <metadata id="CorelCorpID_0Corel-Layer"/>
  <g id="_2067293805312">
   <g>
    <path class="fil0" d="M98 84l-4 -1 -2 9 -6 -1 6 -25 10 2c3,0 5,2 6,3 2,2 2,4 2,7 -1,1 -2,3 -3,4 -1,1 -2,1 -4,2l4 12 -1 0 -5 -1 -3 -11zm-3 -5l4 1c2,0 3,0 3,-1 1,0 2,-1 2,-2 1,-1 0,-2 0,-3 -1,-1 -2,-2 -3,-2l-4 -1 -2 8zm31 10l-10 -3 -2 7 12 3 -1 4 -17 -4 6 -26 17 4 -1 5 -12 -3 -1 6 10 2 -1 5zm13 -13l3 21 11 -18 7 2 -6 26 -6 -2 2 -7 3 -12 -11 18 -4 -1 -2 -21 -3 13 -1 7 -5 -2 6 -25 6 1z"/>
    <path class="fil0" d="M181 100c-1,3 -2,5 -3,6 -2,2 -3,3 -5,4 -2,1 -4,1 -6,0 -2,0 -4,-1 -6,-3 -1,-1 -2,-3 -3,-5 0,-2 0,-4 1,-7l0 -1c0,-3 1,-5 3,-7 1,-1 3,-2 5,-3 2,-1 4,-1 6,0 2,0 4,1 5,3 2,1 2,3 3,5 0,2 0,4 0,7l0 1zm-6 -2c1,-3 1,-5 0,-7 0,-1 -1,-3 -3,-3 -2,0 -4,0 -5,1 -1,1 -2,3 -3,6l0 1c-1,3 -1,5 0,7 1,1 2,2 4,3 1,0 3,0 4,-1 2,-2 2,-3 3,-6l0 -1zm15 6l-3 3 -2 7 -5 -1 6 -26 5 1 -3 12 4 -3 8 -7 7 2 -12 9 6 17 -6 -2 -5 -12zm32 19l-5 -2 -7 -19 -3 17 -6 -1 6 -26 5 1 7 20 4 -17 5 1 -6 26zm19 -2l-9 -2 -3 5 -6 -1 16 -24 5 1 3 28 -5 -1 -1 -6zm-7 -6l7 2 -1 -11 -6 9z"/>
    <path class="fil1" d="M75 62c-2,-6 7,0 9,-5 4,-8 -4,-6 -8,-8 1,0 4,-1 6,-2 3,-1 2,-2 6,0 12,6 11,4 10,10 -1,5 -1,4 -7,6 -5,1 -3,1 -9,0 -2,0 -6,0 -7,-1z"/>
    <path class="fil0" d="M54 47l29 6 -1 4c-1,0 -2,1 -3,0l0 -2 -11 -2 -4 24 10 2 3 -14 3 0 -3 18 -21 -4 2 -3 3 1 5 -25 -11 -2 -5 23c-1,0 -1,0 -3,0l6 -26 1 0z"/>
    <path class="fil1" d="M59 71c-4,-6 -5,5 -11,4 -8,-2 -2,-7 0,-12 -1,1 -4,2 -6,3 -3,2 -3,1 -4,6 -4,13 -4,11 1,14 5,2 4,2 9,-1 5,-4 3,-2 7,-8 1,-1 3,-4 4,-6z"/>
    <polygon class="fil0" points="55,81 80,87 85,65 88,66 82,91 53,84 55,81 "/>
   </g>
   <g>
    <g>
     <path class="fil0" d="M365 142l-2 8c0,2 -1,3 -2,3 -1,1 -2,1 -4,1 -1,-1 -2,-1 -3,-2 -1,-1 -1,-2 -1,-4l2 -8 3 0 -2 9c0,1 0,1 0,2 0,0 1,0 2,1 1,0 2,-1 2,-2l2 -9 3 1z"/>
     <path class="fil0" d="M347 146l-2 0 -1 4 -3 0 3 -13 5 1c1,1 2,1 3,2 1,1 1,2 1,3 -1,1 -1,2 -2,2 0,1 -1,1 -2,1l2 6 0 0 -3 -1 -1 -5zm-2 -2l2 0c1,0 2,0 2,0 0,0 1,-1 1,-1 0,-1 0,-1 0,-2 -1,0 -1,0 -2,-1l-2 0 -1 4z"/>
    </g>
    <path class="fil0" d="M336 147c0,0 1,0 1,0 0,-1 1,-1 1,-1 0,0 1,1 1,1 0,0 0,1 0,1 0,0 0,1 -1,1 0,0 0,0 -1,0 0,0 0,0 -1,-1 0,0 0,0 0,-1z"/>
   </g>
   <polygon class="fil0" points="322,135 319,137 317,144 312,143 318,118 323,119 320,130 323,128 332,121 338,122 326,132 332,148 326,146 "/>
   <path class="fil0" d="M306 135c1,-1 0,-2 0,-3 -1,0 -2,-1 -3,-2 -2,-1 -3,-2 -4,-3 -3,-2 -4,-5 -3,-7 0,-2 1,-3 2,-4 1,-1 2,-1 4,-1 1,-1 3,-1 5,0 2,0 3,1 4,2 2,1 3,2 3,3 1,2 1,3 0,5l-5 -1c0,-2 0,-3 0,-3 -1,-1 -2,-2 -3,-2 -2,0 -3,0 -3,0 -1,0 -2,1 -2,2 0,1 0,2 1,2 0,1 2,2 3,3 3,1 5,3 6,5 1,1 1,3 1,5 -1,2 -2,4 -4,5 -2,0 -4,1 -7,0 -2,-1 -4,-1 -5,-2 -2,-1 -3,-3 -3,-4 -1,-2 -1,-3 0,-5l5 1c-1,3 0,5 4,6 1,0 2,0 3,0 1,-1 1,-1 1,-2z"/>
   <polygon class="fil0" points="275,108 278,128 288,111 295,112 289,138 284,137 286,130 289,118 278,135 274,134 272,114 269,126 268,133 263,132 268,106 "/>
   <polygon class="fil0" points="260,122 250,120 251,115 261,118 "/>
  </g>
 </g>
</svg>
