<?xml version="1.0" encoding="UTF-8"?>
<!DOCTYPE svg PUBLIC "-//W3C//DTD SVG 1.1//EN" "http://www.w3.org/Graphics/SVG/1.1/DTD/svg11.dtd">
<!-- Creator: CorelDRAW X8 -->
<svg xmlns="http://www.w3.org/2000/svg" xml:space="preserve" width="300px" height="300px" version="1.1" style="shape-rendering:geometricPrecision; text-rendering:geometricPrecision; image-rendering:optimizeQuality; fill-rule:evenodd; clip-rule:evenodd"
viewBox="0 0 300 300"
 xmlns:xlink="http://www.w3.org/1999/xlink">
 <defs>
  <style type="text/css">
   <![CDATA[
    .fil0 {fill:#FF6F36}
   ]]>
  </style>
 </defs>
 <g id="Слой_x0020_1">
  <metadata id="CorelCorpID_0Corel-Layer"/>
  <g id="_2333953382096">
   <g>
    <path class="fil0" d="M97 85c7,-1 12,4 12,10 0,4 0,7 -2,9 -2,2 -4,4 -7,4 -4,1 -6,0 -9,-2 -1,-2 -3,-4 -3,-8 0,-4 0,-6 2,-9 1,-2 4,-3 7,-4zm-26 -28c4,-1 7,0 9,2 1,2 3,5 3,8 0,4 0,6 -2,9 -2,2 -4,3 -7,4 -7,0 -12,-4 -12,-11 0,-3 0,-6 2,-9 2,-2 4,-3 7,-3zm0 44c0,0 6,-9 6,-10 2,-3 4,-6 6,-10 2,-3 4,-7 7,-10l4 -8c1,0 1,-1 2,-2l4 3c0,0 -6,9 -6,10 -2,3 -4,6 -6,10l-10 15c0,1 -1,2 -1,2 -1,1 -1,2 -2,3l-4 -3zm3 -61c0,0 -7,-2 -8,-2 -1,-1 -2,-1 -4,-1 0,-1 -1,-1 -2,-1 0,0 -1,-1 -2,-1 0,1 0,1 0,1 0,1 0,1 0,1 0,1 -1,2 -1,2l-1 6c0,1 0,2 -1,2 0,1 0,4 0,5 -1,0 -4,0 -4,0 -1,1 -2,1 -2,1l-10 2c0,0 0,0 -1,0 0,1 5,16 5,16 0,0 0,0 0,1 -1,0 -2,1 -3,2 -1,1 -3,3 -4,4l-3 3c-1,0 -2,1 -2,1 0,1 0,1 1,1 0,0 0,0 0,0l4 4c1,1 1,1 1,1l2 2c1,1 4,3 4,4 0,0 0,1 0,2 0,0 -1,1 -1,2l-2 8c-1,1 -2,3 -2,4 1,0 9,2 10,2 1,0 6,1 7,1 0,0 0,2 0,2l3 13c0,0 0,1 0,2 1,0 13,-4 14,-5 3,-1 2,-1 3,1 0,0 1,0 1,0l1 2c0,0 1,1 1,1 1,1 4,4 5,5l1 1c0,0 1,2 1,2 1,0 1,0 1,0l0 -1c1,0 1,0 1,-1l1 -1c0,0 0,0 1,-1 0,0 0,0 0,0 0,0 0,0 1,-1 0,0 0,0 0,0l3 -3c0,0 0,0 0,-1l4 -3c0,0 15,5 16,5 0,-1 2,-11 2,-13 1,0 1,-1 1,-2 0,0 0,0 0,-1 0,-1 0,-1 2,-1l10 -2c1,-1 4,-1 5,-1 0,-1 -3,-8 -3,-8 0,-1 -2,-8 -2,-8 0,-1 1,-2 1,-2l1 0c1,-1 3,-3 4,-4 0,0 1,-1 1,-1l4 -4c0,0 1,0 1,-1 0,0 0,0 -1,0l-5 -5c-1,-1 -2,-2 -3,-2l-3 -4c0,0 0,-1 0,-2l3 -10c1,-1 2,-3 2,-4 -1,0 -17,-3 -17,-3 0,-1 0,-1 0,-1 -1,-5 -2,-9 -3,-14 0,0 0,-1 0,-2 -1,0 -8,3 -8,3 -1,0 -8,2 -8,2 -1,0 -1,0 -1,0l-4 -4c0,-1 -3,-4 -4,-5l-2 -2c0,-1 0,-1 -1,-1 0,0 0,1 -1,1 0,0 0,0 0,1l-3 3c0,0 -1,1 -1,1l-6 6z"/>
    <path class="fil0" d="M97 90c-4,1 -3,5 -3,8 0,6 6,7 8,3 1,-2 1,-3 1,-5 0,-2 0,-3 -1,-4 -1,-1 -3,-2 -5,-2z"/>
    <path class="fil0" d="M72 61c-2,1 -3,2 -3,3 -1,1 -1,3 -1,5 0,2 0,3 1,4 1,2 6,2 7,-1 1,-1 1,-3 1,-5 0,-1 0,-3 -1,-4 -1,-1 -2,-2 -4,-2z"/>
   </g>
   <g>
    <path class="fil0" d="M244 242c4,0 7,2 7,6 0,2 0,4 -1,5 -1,1 -2,2 -4,3 -2,0 -4,-1 -5,-2 -1,-1 -2,-2 -2,-4 0,-3 0,-4 1,-6 1,-1 2,-2 4,-2zm-14 -16c2,-1 3,0 4,1 1,1 2,3 2,5 0,2 0,3 -1,5 -1,1 -2,2 -4,2 -4,0 -7,-2 -7,-6 0,-2 0,-4 1,-5 1,-1 3,-2 5,-2zm-1 26c0,-1 4,-6 4,-6 1,-2 2,-4 3,-6 2,-2 3,-4 4,-6l3 -4c0,-1 0,-1 1,-2l2 2c0,0 -3,5 -3,6 -2,2 -3,3 -4,5l-6 9c0,1 0,1 0,2 -1,0 -1,1 -1,1l-3 -1zm2 -36c0,0 -4,-1 -4,-1 -1,0 -2,-1 -3,-1 0,0 0,0 -1,0 0,0 -1,-1 -1,-1 0,1 0,1 0,1 0,0 0,0 0,1 0,0 0,0 -1,1l0 3c0,1 -1,1 -1,1 0,1 0,3 0,3 0,0 -2,0 -2,0 -1,0 -1,1 -2,1l-5 1c0,0 0,0 -1,0 0,0 3,9 3,9 0,0 0,0 0,0 0,1 -1,1 -1,2 -1,0 -2,2 -3,2l-2 2c0,0 -1,0 -1,1 0,0 1,0 1,0 0,0 0,0 0,0l2 2c1,1 1,1 1,1l1 1c0,0 2,2 2,2 0,0 0,1 0,1 0,1 0,1 0,1l-2 5c0,0 -1,2 -1,2 1,0 6,1 6,2 1,0 4,0 4,0 0,1 0,1 0,2l2 7c0,0 0,0 0,1 0,0 7,-2 8,-3 1,0 1,0 2,0 0,1 0,1 0,1l1 1c0,0 0,0 1,0 0,1 2,3 2,3l1 1c0,0 0,1 1,1 0,0 0,0 0,0l0 -1c0,0 0,0 0,0l1 -1c0,0 0,0 0,0 0,0 1,0 1,0 0,0 0,0 0,-1 0,0 0,0 0,0l2 -2c0,0 0,0 0,0l2 -2c0,0 9,3 9,3 0,-1 2,-6 2,-7 0,-1 0,-1 0,-1 0,-1 0,-1 0,-1 0,-1 0,-1 2,-1l5 -1c1,0 2,-1 3,-1 0,0 -2,-4 -2,-4 0,-1 -1,-5 -1,-5 0,0 1,-1 1,-1l0 0c1,-1 2,-2 2,-2 1,0 1,-1 1,-1l3 -2c0,0 0,0 0,0 0,0 0,-1 0,-1l-4 -3c0,0 0,0 -1,-1l-2 -2c0,0 0,-1 0,-1l2 -6c0,0 1,-2 1,-2 -1,0 -10,-2 -10,-2 0,0 0,-1 0,-1 0,-2 -1,-5 -1,-7 0,-1 -1,-1 -1,-2 0,0 -4,2 -4,2 -1,0 -5,1 -5,1 0,0 0,0 0,0l-2 -2c-1,-1 -2,-2 -3,-3l-1 -1c0,0 0,-1 0,-1 -1,0 -1,1 -1,1 0,0 0,0 0,0l-2 2c0,0 0,0 -1,1l-3 3z"/>
    <path class="fil0" d="M245 245c-3,1 -3,3 -3,5 0,3 4,4 5,1 1,-1 1,-2 1,-3 0,-1 0,-2 -1,-2 0,-1 -1,-1 -2,-1z"/>
    <path class="fil0" d="M230 229c-1,0 -2,0 -2,1 -1,1 -1,2 -1,3 0,1 1,2 1,2 1,1 4,2 4,0 1,-1 1,-2 1,-3 0,-1 0,-2 -1,-3 0,0 -1,-1 -2,0z"/>
   </g>
  </g>
 </g>
</svg>
