<?xml version="1.0" encoding="UTF-8"?>
<!DOCTYPE svg PUBLIC "-//W3C//DTD SVG 1.1//EN" "http://www.w3.org/Graphics/SVG/1.1/DTD/svg11.dtd">
<!-- Creator: CorelDRAW X8 -->
<svg xmlns="http://www.w3.org/2000/svg" xml:space="preserve" width="483px" height="689px" version="1.1" style="shape-rendering:geometricPrecision; text-rendering:geometricPrecision; image-rendering:optimizeQuality; fill-rule:evenodd; clip-rule:evenodd"
viewBox="0 0 483 689"
 xmlns:xlink="http://www.w3.org/1999/xlink">
 <defs>
  <style type="text/css">
   <![CDATA[
    .fil0 {fill:white}
   ]]>
  </style>
 </defs>
 <g id="Слой_x0020_1">
  <metadata id="CorelCorpID_0Corel-Layer"/>
  <path class="fil0" d="M318 592c-7,16 16,26 23,10 3,-5 1,-13 -6,-16 -6,-3 -14,-1 -17,6zm-54 -369c-2,-5 -8,-5 -11,-1l-21 26c-3,5 -7,8 -5,12 6,12 17,-6 22,-12 4,-4 7,-9 11,-13 3,-5 7,-7 4,-12zm43 34c-3,-5 -8,-5 -12,-1l-21 26c-3,4 -7,8 -5,12 3,5 9,5 12,1l21 -26c4,-5 7,-7 5,-12zm-64 -51c-5,-13 -18,8 -22,12 -6,8 -18,20 -15,25 6,12 18,-6 22,-12 3,-4 7,-9 10,-13 4,-5 7,-7 5,-12zm39 45c2,-4 5,-6 4,-10 -1,-3 -5,-5 -8,-5 -4,2 -30,35 -30,38 -1,2 1,6 6,7 3,0 5,-2 8,-5l20 -25zm165 118c-5,-9 -17,0 -12,8 6,8 18,1 12,-8zm28 -25l-216 -173c-4,-3 -9,-9 -13,-3 -4,5 2,9 7,13 72,57 143,115 214,172l8 -9zm-198 255c5,-4 21,-28 25,-35 26,-40 43,-86 20,-131 -6,-10 -12,-20 -20,-30 -18,-20 -42,-39 -63,-57 -25,-20 -44,-31 -56,-58 -8,-19 -10,-42 -3,-64 7,-26 29,-48 47,-70 13,-16 15,-17 32,-4l212 170c27,23 -2,22 0,40 1,20 1,36 -2,57 -12,85 -55,167 -109,237 -8,10 -19,26 -27,35l-92 -73c4,-11 19,-31 36,-17zm41 -76c-18,-9 -49,-28 -51,-46 -3,-16 21,-18 44,-53 5,7 10,17 12,24 5,18 6,32 3,50 -1,5 -5,21 -8,25zm-136 -401l-26 31c-4,6 -4,7 -10,2 -9,-7 -24,-18 -32,-25 2,-5 25,-33 31,-41 5,-6 8,-1 23,12 19,15 20,13 14,21zm-91 -37l-88 -70c-3,-2 -2,-3 -3,-5 -1,-13 12,-10 13,-9l63 51c6,5 21,16 25,20l-10 13zm97 111c-6,-4 -19,-13 -17,-19l37 -45c4,-3 7,-1 11,2 3,3 8,6 11,10l-42 52zm-74 -74c-16,-13 -23,-13 -23,-29 0,-3 15,-21 17,-22 0,0 10,-1 11,-1 5,0 18,14 23,18l-28 34zm79 22l-17 21 -3 4 -15 -12 23 -28 3 -4 2 -2 15 11 -8 10z"/>
 </g>
</svg>
