<?xml version="1.0" encoding="UTF-8"?>
<!DOCTYPE svg PUBLIC "-//W3C//DTD SVG 1.1//EN" "http://www.w3.org/Graphics/SVG/1.1/DTD/svg11.dtd">
<!-- Creator: CorelDRAW X8 -->
<svg xmlns="http://www.w3.org/2000/svg" xml:space="preserve" width="32px" height="32px" version="1.1" style="shape-rendering:geometricPrecision; text-rendering:geometricPrecision; image-rendering:optimizeQuality; fill-rule:evenodd; clip-rule:evenodd"
viewBox="0 0 32 32"
 xmlns:xlink="http://www.w3.org/1999/xlink">
 <defs>
  <style type="text/css">
   <![CDATA[
    .fil0 {fill:#FF5916}
    .fil1 {fill:black;fill-rule:nonzero}
    .fil2 {fill:#FF5916;fill-rule:nonzero}
   ]]>
  </style>
 </defs>
 <g id="Слой_x0020_1">
  <metadata id="CorelCorpID_0Corel-Layer"/>
  <g id="_2504723314848">
   <path class="fil0" d="M20 12c-2,-3 3,-1 4,-4 1,-5 -3,-3 -5,-3 0,-1 2,-2 3,-2 1,-1 1,-2 3,-1 8,1 7,1 7,4 0,3 0,3 -3,4 -3,2 -1,1 -5,2 -1,0 -3,0 -4,0z"/>
   <path class="fil1" d="M6 6l17 0 0 2c0,1 -1,1 -2,1l0 -2 -6 0 0 15 7 0 0 -9 1 0 1 10 -12 1 0 -2 2 0 -1 -15 -6 1 0 13c0,0 0,1 -1,0l-1 -15 1 0z"/>
   <path class="fil1" d="M6 5l18 0 0 4 -1 0c0,0 -1,0 -2,0l0 0 0 -1 -5 0 0 13 5 0 0 -8 3 -1 0 12 -13 0 1 -3 1 0 0 -13 -5 0 0 14 0 0c-1,0 -1,0 -1,0 0,0 -1,0 -1,0l-1 0 0 -16c0,0 1,-1 1,-1zm16 1l-16 1 0 14c1,0 1,0 1,0l-1 -14 8 0 0 15 -1 0 0 1 10 0 0 -10 -1 1 0 8 -7 0 -1 -15 8 0 0 1c0,0 0,0 0,0l0 -2z"/>
   <path class="fil0" d="M12 19c-3,-3 -2,4 -5,3 -5,0 -2,-3 -2,-6 -1,1 -2,2 -3,3 -1,1 -2,0 -2,3 0,8 -1,7 3,8 3,1 2,1 5,-2 2,-3 1,-1 3,-5 0,-1 1,-3 1,-4z"/>
   <polygon class="fil2" points="11,25 26,25 26,12 28,12 28,27 10,27 11,25 "/>
   <path class="fil2" d="M11 25l14 0 0 -13 3 0 0 15 -19 0 2 -2 0 0 0 0zm15 1l-15 0 0 0 16 0 0 -13 -1 0 0 13 0 0z"/>
  </g>
 </g>
</svg>
