<?xml version="1.0" encoding="UTF-8"?>
<!DOCTYPE svg PUBLIC "-//W3C//DTD SVG 1.1//EN" "http://www.w3.org/Graphics/SVG/1.1/DTD/svg11.dtd">
<!-- Creator: CorelDRAW X8 -->
<svg xmlns="http://www.w3.org/2000/svg" xml:space="preserve" width="490px" height="90px" version="1.1" style="shape-rendering:geometricPrecision; text-rendering:geometricPrecision; image-rendering:optimizeQuality; fill-rule:evenodd; clip-rule:evenodd"
viewBox="0 0 490 90"
 xmlns:xlink="http://www.w3.org/1999/xlink">
 <defs>
  <style type="text/css">
   <![CDATA[
    .fil0 {fill:#FF5916}
    .fil3 {fill:black;fill-rule:nonzero}
    .fil1 {fill:black;fill-rule:nonzero}
    .fil2 {fill:#FF5916;fill-rule:nonzero}
    .fil4 {fill:#FF5916;fill-rule:nonzero}
   ]]>
  </style>
 </defs>
 <g id="Слой_x0020_1">
  <metadata id="CorelCorpID_0Corel-Layer"/>
  <g id="_2294123371216">
   <path class="fil0" d="M60 33c-6,-10 11,-3 13,-13 4,-14 -8,-8 -16,-9 1,-2 6,-4 9,-6 5,-3 3,-4 11,-2 22,4 19,2 20,12 0,9 1,8 -9,12 -9,5 -4,3 -16,5 -3,1 -9,2 -12,1z"/>
   <path class="fil1" d="M19 15l51 -1 0 8c-2,1 -3,1 -5,1l0 -4 -19 0 1 43 19 0 -1 -26 5 -1 1 32 -35 1 2 -5 4 0 -1 -44 -19 1 1 41c-2,0 -2,1 -5,0l-1 -46 2 0z"/>
   <path class="fil0" d="M37 54c-9,-8 -7,11 -16,10 -16,0 -7,-10 -6,-19 -2,2 -6,6 -8,8 -5,4 -5,2 -5,10 -2,24 -3,21 7,23 9,3 8,4 15,-5 7,-8 4,-4 9,-15 1,-3 4,-8 4,-12z"/>
   <polygon class="fil2" points="34,73 78,73 78,34 83,34 83,78 31,78 33,73 "/>
   <g>
    <g>
     <path class="fil3" d="M489 55l0 14c0,3 0,5 -2,6 -2,2 -4,2 -6,2 -3,0 -5,0 -7,-2 -1,-1 -2,-3 -2,-6l0 -14 5 0 0 14c0,2 0,3 1,4 1,0 1,1 3,1 2,0 4,-2 4,-5l0 -14 4 0z"/>
     <path class="fil3" d="M461 69l-4 0 0 8 -5 0 0 -22 9 0c2,0 4,0 6,1 1,1 2,3 2,5 0,2 -1,3 -1,4 -1,1 -2,2 -3,3l5 9 0 0 -5 0 -4 -8zm-4 -4l4 0c1,0 2,0 2,-1 1,0 1,-1 1,-2 0,-1 0,-2 -1,-3 0,0 -1,-1 -2,-1l-4 0 0 7z"/>
    </g>
    <path class="fil3" d="M443 75c0,-1 0,-2 1,-2 0,0 1,-1 1,-1 1,0 2,1 2,1 1,0 1,1 1,2 0,0 0,1 -1,1 0,1 -1,1 -2,1 0,0 -1,0 -1,-1 -1,0 -1,-1 -1,-1z"/>
   </g>
   <g>
    <polygon class="fil3" points="444,36 427,77 417,77 435,38 412,38 412,31 444,31 "/>
    <polygon class="fil3" points="407,36 390,77 380,77 398,38 375,38 375,31 407,31 "/>
    <path class="fil4" d="M355 70c1,0 2,0 3,-1 1,0 2,-1 3,-2l0 -6 -4 0c-4,0 -7,2 -7,5l0 0c0,2 0,3 1,3 1,1 2,1 4,1zm7 7c0,-1 -1,-2 -1,-3 -2,2 -5,3 -8,3 -4,0 -6,-1 -9,-3 -2,-2 -3,-4 -3,-7 0,-3 1,-6 4,-8 3,-2 7,-3 12,-3l4 0 0 -2c0,-2 -1,-3 -1,-4 -1,-1 -3,-1 -4,-1 -2,0 -3,0 -4,1 -1,1 -1,2 -1,3l-9 0c0,-2 0,-4 2,-6 1,-1 3,-2 5,-3 2,-1 4,-2 7,-2 4,0 8,1 10,3 3,2 4,5 4,9l0 15c0,3 0,5 1,7l0 1 -9 0z"/>
    <path class="fil4" d="M315 43l0 4c3,-3 6,-5 10,-5 3,0 6,1 8,3 2,2 3,6 3,10l0 22 -9 0 0 -22c0,-2 -1,-3 -2,-4 -1,-1 -2,-2 -4,-2 -2,0 -4,2 -6,4l0 24 -9 0 0 -34 9 0z"/>
    <polygon class="fil4" points="285,63 281,66 281,77 272,77 272,29 281,29 281,55 283,53 292,43 303,43 290,57 304,77 293,77 "/>
    <path class="fil4" d="M266 55c0,4 -1,8 -2,12 -2,3 -4,6 -7,8 -3,1 -7,2 -10,2 -4,0 -7,-1 -10,-2 -3,-2 -6,-5 -7,-8 -2,-4 -3,-7 -3,-12l0 -2c0,-5 1,-9 3,-12 1,-3 4,-6 6,-8 3,-2 7,-3 11,-3 3,0 7,1 10,3 3,2 5,5 7,8 1,3 2,7 2,12l0 2zm-10 -2c0,-5 0,-9 -2,-11 -2,-3 -4,-4 -7,-4 -4,0 -6,1 -8,4 -1,2 -2,6 -2,11l0 2c0,5 1,8 2,11 2,2 4,4 8,4 3,0 5,-2 7,-4 2,-3 2,-6 2,-11l0 -2z"/>
    <path class="fil3" d="M181 43l0 4c3,-3 6,-5 10,-5 4,0 7,2 9,5 2,-3 6,-5 10,-5 4,0 7,1 8,3 2,2 3,6 3,10l0 22 -9 0 0 -22c0,-2 0,-3 -1,-4 -1,-1 -2,-2 -4,-2 -3,0 -5,2 -6,4l0 24 -9 0 0 -22c0,-2 0,-3 -1,-4 -1,-1 -2,-2 -4,-2 -2,0 -4,2 -5,4l0 24 -9 0 0 -34 8 0z"/>
    <path class="fil3" d="M152 49c-1,0 -3,1 -4,2 -1,1 -2,3 -2,5l12 0 0 0c0,-2 0,-4 -1,-5 -1,-1 -3,-2 -5,-2zm1 28c-5,0 -9,-1 -12,-4 -3,-3 -4,-7 -4,-12l0 -1c0,-4 0,-7 2,-9 1,-3 3,-5 5,-7 3,-1 5,-2 8,-2 5,0 9,2 11,5 3,2 4,7 4,12l0 4 -21 0c0,2 1,4 2,5 2,1 4,2 6,2 4,0 6,-1 8,-4l5 5c-2,2 -4,4 -6,5 -2,1 -5,1 -8,1z"/>
    <path class="fil3" d="M107 52l7 0c3,0 5,0 6,-1 1,-2 2,-3 2,-5 0,-3 -1,-4 -2,-5 -1,-2 -3,-2 -6,-2l-7 0 0 13zm7 8l-7 0 0 17 -9 0 0 -46 16 0c6,0 10,1 13,4 3,2 4,5 4,10 0,3 0,6 -2,8 -1,2 -3,3 -6,5l10 18 0 1 -10 0 -9 -17z"/>
   </g>
  </g>
 </g>
</svg>
