<?xml version="1.0" encoding="UTF-8"?>
<!DOCTYPE svg PUBLIC "-//W3C//DTD SVG 1.1//EN" "http://www.w3.org/Graphics/SVG/1.1/DTD/svg11.dtd">
<!-- Creator: CorelDRAW X8 -->
<svg xmlns="http://www.w3.org/2000/svg" xml:space="preserve" width="80px" height="80px" version="1.1" style="shape-rendering:geometricPrecision; text-rendering:geometricPrecision; image-rendering:optimizeQuality; fill-rule:evenodd; clip-rule:evenodd"
viewBox="0 0 80 80"
 xmlns:xlink="http://www.w3.org/1999/xlink">
 <defs>
  <style type="text/css">
   <![CDATA[
    .fil0 {fill:white}
   ]]>
  </style>
 </defs>
 <g id="Слой_x0020_1">
  <metadata id="CorelCorpID_0Corel-Layer"/>
  <path class="fil0" d="M5 64l21 -21c1,1 4,4 6,6 2,2 5,3 8,3 3,0 5,-1 8,-3 0,0 0,0 0,0l6 -5c0,0 0,0 0,0 0,0 0,-1 0,-1 1,0 3,2 3,3l8 8c1,1 10,10 10,10 0,1 -1,2 -2,2l-66 0c-1,0 -1,0 -2,-1 0,0 0,0 0,-1zm0 -6l0 -36c0,0 0,1 0,1l1 0c0,0 0,0 0,0 0,0 0,0 0,0 0,0 0,0 0,0l2 2c2,2 5,5 7,7 0,1 1,1 1,1 0,1 6,7 7,7l-18 18zm53 -18c0,0 4,-5 5,-6 0,0 0,0 0,0 0,0 0,0 0,0 3,-3 6,-6 9,-8l1 -1c0,-1 1,-1 1,-1 0,-1 1,-1 1,-2l0 35 -17 -17zm-53 -24c0,-1 1,-2 2,-2l66 0c1,0 2,1 2,2 0,0 -1,1 -2,2l0 0c-1,1 -1,1 -1,1l-25 25c0,0 0,0 0,0l-1 1c0,0 0,0 0,0 -2,2 -5,2 -8,2 -1,0 -3,-1 -4,-2 0,-1 -29,-29 -29,-29zm-5 0l0 48c0,1 1,3 1,3 0,1 0,1 0,1 2,2 4,3 6,3l66 0c3,0 5,-2 6,-4 0,0 1,-1 1,-1 0,-1 0,-1 0,-2l0 -48c0,-1 0,-2 -1,-3 0,-1 -1,-2 -3,-3 -1,0 -2,-1 -3,-1l-66 0c-3,0 -5,2 -6,4 0,0 -1,2 -1,3z"/>
 </g>
</svg>
