<?xml version="1.0" encoding="UTF-8"?>
<!DOCTYPE svg PUBLIC "-//W3C//DTD SVG 1.1//EN" "http://www.w3.org/Graphics/SVG/1.1/DTD/svg11.dtd">
<!-- Creator: CorelDRAW X8 -->
<svg xmlns="http://www.w3.org/2000/svg" xml:space="preserve" width="80px" height="80px" version="1.1" style="shape-rendering:geometricPrecision; text-rendering:geometricPrecision; image-rendering:optimizeQuality; fill-rule:evenodd; clip-rule:evenodd"
viewBox="0 0 80 80"
 xmlns:xlink="http://www.w3.org/1999/xlink">
 <defs>
  <style type="text/css">
   <![CDATA[
    .fil0 {fill:white}
   ]]>
  </style>
 </defs>
 <g id="Слой_x0020_1">
  <metadata id="CorelCorpID_0Corel-Layer"/>
  <g id="_2066986827616">
   <path class="fil0" d="M10 15l0 4c0,0 0,0 0,0 0,1 0,1 0,1 0,0 0,0 0,0 0,0 0,0 0,1 0,0 1,1 1,1l0 1c0,1 0,1 0,2 0,2 0,4 0,6 1,2 1,5 2,6l0 1c0,2 1,4 1,6 1,2 2,3 2,5 1,1 2,3 3,5l3 4c0,0 0,0 0,1l4 5c0,0 1,1 1,1 0,1 1,1 1,1 0,0 0,0 0,0 0,0 0,0 0,0l0 1c1,0 1,0 1,0l0 1c0,0 0,0 1,0l0 1c1,0 1,0 1,0l1 2c0,0 0,0 0,0 0,0 0,0 0,0l3 2c0,1 3,2 3,3l1 0c0,0 0,0 0,0l3 2c0,0 0,0 0,0l0 0c1,1 3,1 4,1 0,1 2,1 3,1l4 0c0,0 1,0 2,0l2 -1c1,0 1,0 1,-1l2 0c0,0 0,0 0,0 0,0 0,0 1,-1l1 0c0,0 0,0 0,0 1,-1 3,-1 4,-2 0,0 0,0 0,0l0 0c0,0 -3,-3 -4,-3 -1,-1 -3,-3 -4,-4l-4 -3c-1,-1 -2,-1 -3,-2l-2 -1c0,-1 -1,-2 -1,-2 -1,0 -1,0 -1,0l-1 1c0,0 0,0 0,0 -2,1 -3,1 -5,0l0 0c0,0 0,0 0,0 -1,-1 -2,-1 -2,-2 0,0 -1,0 -1,0l-1 -2c0,-1 0,-1 -1,-1l-1 -2c0,-1 0,-1 0,-1l0 -1c-1,0 -1,-1 -2,-2 0,-1 -1,-2 -1,-3 0,0 0,0 0,0l-1 -2c0,0 0,0 0,0l-1 -1c0,0 0,0 0,0l-4 -8c0,-1 -1,-3 -2,-3 0,-1 0,-2 0,-2 0,-1 0,-3 0,-4 1,-1 1,-1 1,-2l1 0c0,-1 1,-1 1,-1 1,0 1,-1 1,-1l0 -3c0,0 0,-1 0,-1l0 -1c0,0 0,0 0,0 0,-1 0,-1 0,-1l0 -2c0,0 0,0 0,0 0,-1 0,-3 0,-3l0 -2c0,0 0,0 0,0 0,-1 0,-1 0,-1 0,-1 0,-1 0,-2l0 0c0,-1 0,-1 0,-1l0 -2c0,0 0,0 0,0 0,-1 0,-1 0,-1l0 -3c-1,0 -2,0 -2,0 -2,0 -5,1 -7,2 0,0 -1,1 -1,1l-1 0c-1,1 -1,1 -2,1 0,1 -1,2 -2,3 -1,1 -1,1 -1,2 -1,1 -1,3 -2,4 0,1 0,1 0,1 0,0 0,1 0,1z"/>
   <path class="fil0" d="M49 59c0,0 0,0 0,0l8 6c0,0 0,0 0,0l1 1c0,0 0,0 0,0 0,0 0,0 1,0 0,0 0,1 1,1l1 1c0,0 1,1 1,1l4 3c0,0 0,0 1,1 0,0 0,0 0,0 1,0 1,1 1,1l0 -2c1,0 2,-3 2,-4 0,-1 0,-1 -1,-1 0,-1 0,-1 0,-1 0,0 0,0 0,0 0,0 0,0 0,0l-4 -3c0,0 0,0 0,0 0,0 0,0 0,0l-4 -3c0,0 0,0 0,0 0,-1 -1,-1 -1,-1 -1,-1 -2,-2 -3,-2 0,-1 -2,-1 -2,-1 -1,0 -1,0 -1,0l-5 3z"/>
   <path class="fil0" d="M30 0c-1,0 0,0 0,0 0,1 0,1 0,1l0 4c0,0 0,0 0,0 0,1 0,1 0,2 0,0 0,0 0,0 0,1 0,1 0,2 0,0 0,0 0,0 0,1 0,1 0,1 0,0 0,0 0,0 0,1 0,1 0,1 0,1 0,1 0,1l0 2c0,1 0,1 0,1 0,0 0,0 0,0 0,0 0,1 0,1l0 3c0,0 0,1 0,1 0,0 0,1 0,1 0,0 0,1 0,2 1,1 4,-1 5,-2l1 -1c0,-1 0,-1 0,-1 0,0 0,-1 0,-1 0,0 0,-1 0,-2 0,0 0,-1 0,-2 0,0 0,0 0,0 0,-1 0,-1 0,-1 0,-1 0,-1 0,-1l0 -4c0,0 0,0 0,-1 0,0 0,-1 0,-2 0,-1 0,-1 0,-2 -1,-2 -4,-3 -6,-3z"/>
  </g>
 </g>
</svg>
