<?xml version="1.0" encoding="UTF-8"?>
<!DOCTYPE svg PUBLIC "-//W3C//DTD SVG 1.1//EN" "http://www.w3.org/Graphics/SVG/1.1/DTD/svg11.dtd">
<!-- Creator: CorelDRAW X8 -->
<svg xmlns="http://www.w3.org/2000/svg" xml:space="preserve" width="110px" height="110px" version="1.1" style="shape-rendering:geometricPrecision; text-rendering:geometricPrecision; image-rendering:optimizeQuality; fill-rule:evenodd; clip-rule:evenodd"
viewBox="0 0 110 110"
 xmlns:xlink="http://www.w3.org/1999/xlink">
 <defs>
  <style type="text/css">
   <![CDATA[
    .fil0 {fill:#FF5916}
    .fil1 {fill:white}
   ]]>
  </style>
 </defs>
 <g id="Слой_x0020_1">
  <metadata id="CorelCorpID_0Corel-Layer"/>
  <g id="_2540143155440">
   <circle class="fil0" cx="55" cy="55" r="55"/>
   <path class="fil1" d="M13 63c0,-1 0,-3 0,-4 0,-1 0,-3 0,-4 0,-12 4,-22 12,-30 8,-8 18,-12 30,-12 2,0 5,0 7,0 2,0 5,1 7,2l-1 1c-2,-1 -4,-1 -6,-2 -2,0 -5,0 -7,0 -11,0 -22,5 -29,12 -7,7 -12,18 -12,29 0,1 0,3 0,4 0,1 0,2 1,4l-2 0z"/>
   <path class="fil1" d="M83 87c-4,3 -8,6 -13,8 -5,2 -10,2 -15,2 -7,0 -13,-1 -19,-4 -6,-3 -11,-7 -15,-12l1 -1c4,5 9,9 15,12 5,3 11,4 18,4 5,0 10,-1 14,-3 5,-1 9,-4 13,-7l1 1z"/>
   <path class="fil1" d="M83 23c5,4 8,9 11,15 2,5 3,11 3,17 0,3 0,6 -1,9 0,3 -1,6 -2,9l-2 -1c2,-3 2,-5 3,-8 1,-3 1,-6 1,-9 0,-6 -1,-12 -3,-17 -3,-5 -6,-10 -10,-13l0 -2z"/>
   <path class="fil1" d="M43 103c-11,-3 -20,-9 -27,-18 -7,-8 -11,-19 -11,-30 0,-8 2,-15 5,-21 3,-7 8,-13 14,-17l1 1c-6,4 -10,10 -14,16 -2,7 -4,14 -4,21 0,11 4,21 10,30 7,8 16,14 26,17l0 1z"/>
   <path class="fil1" d="M104 52c0,0 0,1 1,1 0,1 0,1 0,2 0,11 -4,21 -10,29 -6,9 -15,15 -25,18l-1 -1c10,-3 19,-9 25,-18 6,-7 9,-17 9,-28 0,-1 0,-1 0,-2 0,0 0,-1 0,-1l1 0z"/>
   <path class="fil1" d="M41 8c2,-1 4,-2 7,-2 2,0 5,-1 7,-1 10,0 19,3 27,8 8,5 14,13 18,21l-1 1c-4,-9 -10,-16 -18,-21 -8,-4 -16,-7 -26,-7 -2,0 -5,0 -7,0 -2,1 -5,1 -7,2l0 -1z"/>
   <path class="fil1" d="M53 41c0,0 1,0 1,0l3 0c0,0 0,13 0,16l0 0c0,1 0,1 0,1l-4 0 0 -13c-1,0 -3,1 -3,2 -1,0 -1,0 -1,0l0 -3 2 -2c0,0 2,-1 2,-1zm21 -1c0,-1 -1,-2 -1,-3 -1,-1 -3,0 -5,-1 -2,-1 -1,-3 -1,-4 -1,-1 -1,-2 -2,-2 -2,-1 -3,1 -4,1 -2,1 -3,-1 -4,-2 0,-1 -1,-1 -1,-1 -1,-1 -2,0 -3,0 -1,1 -1,3 -3,3 -2,1 -3,-1 -4,-1 -1,0 -2,0 -2,1 -1,1 0,3 -1,5 -2,2 -4,1 -5,1 -1,0 -1,1 -2,1 0,2 2,3 2,5 0,2 -2,3 -3,3 0,1 -1,1 -1,2 0,1 0,2 0,2 1,1 3,1 4,3 0,2 -1,3 -2,5 0,1 1,1 1,2 1,1 3,0 5,1 0,0 1,1 1,2 0,1 0,4 2,4 2,1 3,-1 4,-1 4,0 3,3 5,4 2,0 3,-2 4,-3 1,-1 2,-2 4,-1 1,1 3,2 4,1 1,-2 0,-4 1,-5 1,-1 1,-1 2,-1 1,-1 4,0 5,-2 0,-2 -2,-3 -2,-5 0,-2 1,-2 3,-3 0,-1 1,-1 1,-2 1,-2 -1,-2 -2,-3 -1,-1 -1,-1 -2,-2 0,-2 1,-3 2,-4z"/>
   <path class="fil1" d="M61 71c0,0 0,0 -1,0 1,1 2,2 3,3 1,1 9,8 9,9 0,-2 0,-10 0,-11 2,0 10,0 11,0l-9 -8c0,0 0,0 -1,0 -1,1 -2,1 -2,1 0,4 -3,7 -7,7 -2,0 -3,-1 -3,-1z"/>
   <path class="fil1" d="M27 72c1,0 10,0 11,0l0 10c0,0 0,0 0,0l11 -11 0 0c0,0 -1,0 -2,0 -3,2 -8,-1 -8,-6 -3,0 -2,-1 -4,-1l-8 8z"/>
  </g>
 </g>
</svg>
