<?xml version="1.0" encoding="UTF-8"?>
<!DOCTYPE svg PUBLIC "-//W3C//DTD SVG 1.1//EN" "http://www.w3.org/Graphics/SVG/1.1/DTD/svg11.dtd">
<!-- Creator: CorelDRAW X8 -->
<svg xmlns="http://www.w3.org/2000/svg" xml:space="preserve" width="234px" height="234px" version="1.1" style="shape-rendering:geometricPrecision; text-rendering:geometricPrecision; image-rendering:optimizeQuality; fill-rule:evenodd; clip-rule:evenodd"
viewBox="0 0 234 234"
 xmlns:xlink="http://www.w3.org/1999/xlink">
 <defs>
  <style type="text/css">
   <![CDATA[
    .fil0 {fill:#FF5916}
    .fil1 {fill:white;fill-rule:nonzero}
   ]]>
  </style>
 </defs>
 <g id="Слой_x0020_1">
  <metadata id="CorelCorpID_0Corel-Layer"/>
  <circle class="fil0" cx="117" cy="117" r="117"/>
  <path class="fil1" d="M86 18c5,-2 10,-3 15,-4 6,0 11,-1 16,-1 21,0 40,6 57,17 17,10 30,26 39,44l-3 1c-8,-17 -22,-32 -38,-43 -16,-10 -35,-16 -55,-16 -5,0 -10,1 -15,1 -5,1 -10,2 -15,4l-1 -3zm136 93c0,1 0,3 0,4 0,1 0,2 0,4 0,23 -7,44 -20,62 -13,18 -32,31 -54,38l-1 -3c22,-6 40,-19 53,-37 12,-17 19,-38 19,-60 0,-2 0,-3 0,-4 0,-1 0,-2 0,-4l3 0zm-130 110c-24,-6 -44,-19 -58,-38 -14,-17 -22,-40 -22,-64 0,-17 3,-32 10,-46 6,-14 16,-26 28,-36l2 2c-12,10 -21,22 -28,36 -6,13 -9,28 -9,44 0,23 8,45 21,63 14,17 34,30 56,36l0 3zm86 -170c9,9 16,19 22,31 5,11 7,24 7,37 0,6 0,13 -2,19 -1,6 -3,12 -6,18l-3 -1c3,-6 5,-12 6,-18 2,-6 2,-12 2,-18 0,-13 -2,-25 -7,-36 -5,-11 -12,-21 -21,-29l2 -3zm-1 135c-9,8 -18,13 -28,17 -10,4 -21,6 -32,6 -14,0 -28,-3 -40,-9 -12,-7 -23,-16 -32,-27l3 -1c8,10 18,19 30,25 12,6 25,9 39,9 11,0 21,-2 31,-6 10,-3 19,-9 27,-16l2 2zm-149 -50c0,-3 -1,-6 -1,-9 0,-3 0,-6 0,-8 0,-25 10,-48 26,-64 16,-17 39,-27 64,-27 5,0 10,1 15,1 5,1 10,2 14,4l-1 3c-4,-2 -9,-3 -14,-4 -4,0 -9,-1 -14,-1 -24,0 -46,10 -62,26 -16,16 -25,37 -25,62 0,2 0,5 0,8 0,3 1,5 1,8l-3 1zm27 -28c0,1 0,0 0,1l-1 0c0,0 0,0 0,0 0,2 0,3 1,4 0,0 1,1 2,1l27 0 0 0c0,0 0,0 0,0 2,-2 3,-2 2,-5 -1,-1 -1,-1 -2,-2l-6 0 -4 0 -5 0 -5 0 -5 0c-2,0 -3,0 -4,1zm14 41l5 0c2,0 7,0 9,0 3,0 4,-3 3,-6 -2,-2 -5,-1 -8,-1l-18 0c-2,0 -6,0 -6,3 0,4 4,4 6,4 3,0 6,0 9,0zm-6 -20c1,2 2,3 6,2 5,0 10,0 15,0 5,0 11,2 11,-4 0,-1 0,-1 -1,-2 0,0 -1,0 -1,0 -4,-1 -13,-1 -17,-1 -3,0 -6,0 -9,0 -3,0 -4,2 -4,5zm57 4c-2,0 -3,-2 -3,-5 0,-2 2,-4 5,-4 2,0 4,1 4,3l1 2c0,0 0,1 -1,2 0,0 0,1 -1,2 -1,1 -4,1 -5,0zm16 -24c0,1 0,0 0,1l-2 2c-1,0 -1,0 -1,1 -1,0 -1,1 -2,1 0,1 -1,2 -2,2 0,1 -1,1 -1,2 -2,0 -3,-1 -5,-1 -3,0 -3,0 -6,1 -1,0 -3,1 -4,2 -1,1 -2,3 -2,3 -2,5 -2,8 1,13 2,3 5,5 10,5 6,0 12,-5 12,-11 0,-4 -1,-4 -1,-7 2,-1 6,-7 8,-9 0,0 0,0 1,0 0,0 -1,0 0,0 1,-2 1,-2 0,-5 0,0 0,0 0,0 0,0 0,0 0,0 -1,-1 -1,-1 -1,-1 -1,0 -2,0 -3,0 -1,0 -1,1 -2,1zm-29 -21c0,1 -4,2 -4,3 -1,0 -4,2 -5,2 0,1 -1,1 -2,2 -4,3 -3,3 -5,5 0,3 0,2 1,4 1,0 2,1 3,1 2,-1 2,-1 3,-3 1,0 2,-1 3,-2 1,-1 5,-3 6,-3 1,-2 8,-3 10,-4 3,0 8,0 11,1 1,0 7,1 8,2 4,1 9,5 11,7 2,2 6,8 7,11 3,3 4,14 3,19 0,2 -1,9 -3,10 0,3 -5,9 -7,11 -2,2 -8,7 -10,7 -2,2 -8,3 -11,3 -2,1 -7,0 -10,0 -2,0 -7,-2 -8,-3 -4,-1 -7,-3 -9,-5 -2,-1 -3,-3 -5,-3 -3,0 -4,2 -3,4 0,3 3,5 5,6 1,1 2,1 3,2 1,1 3,2 3,2 1,0 2,1 3,1 2,1 2,1 3,1 0,0 0,0 0,0 1,0 3,1 4,2 2,0 3,0 5,0 4,1 7,1 11,0 3,0 5,-1 8,-2 1,0 4,-1 5,-1 0,-1 2,-2 3,-2 3,-2 6,-4 8,-7 3,-3 5,-5 7,-9 0,-1 1,-2 2,-3l1 -4c2,-8 4,-12 2,-21 -2,-11 -6,-16 -7,-18l-5 -6 -6 -5c-2,0 -4,-2 -8,-4 0,0 -1,0 -2,-1l-4 -1c-5,-1 -8,-1 -13,-1 -5,0 -8,2 -12,2zm-3 -27c0,0 0,0 0,0l1 2c2,2 4,3 7,4l0 4c-1,1 -3,1 -5,2 -1,0 -3,1 -5,1 -1,1 -3,1 -4,2 -1,1 -4,2 -5,2l-1 1c-4,2 -7,5 -8,6 0,0 0,0 -1,0 0,1 0,0 0,0l-3 3c-1,2 -1,4 0,5 3,4 7,-1 8,-2 1,-2 12,-9 14,-9 1,-1 5,-2 7,-2 8,-3 10,0 10,-8 0,-3 0,-7 0,-10l0 -1c-1,0 -1,0 -1,-1 -1,0 -1,0 -1,-1 -3,1 -7,1 -7,-2 -1,-3 3,-3 6,-3 3,0 6,0 9,0 2,0 7,0 8,1 1,1 2,4 -3,4 -7,0 -6,3 -6,12 0,5 0,5 3,7 1,0 3,1 5,1l4 1c1,0 0,0 1,0 1,0 3,1 4,2 5,1 11,7 13,7 3,0 8,-7 10,-8 0,0 1,0 1,0l1 0c0,0 0,0 0,0 1,0 2,2 1,3l-5 6c-2,2 -2,2 -2,4l0 1c0,0 0,0 0,0 1,1 2,3 3,4 9,12 12,28 8,42 0,1 -1,6 -2,7 0,2 -7,13 -9,14 -1,2 -7,7 -9,9l-2 1c-2,1 -6,4 -8,4 -1,1 -8,3 -10,3 -2,1 -12,1 -15,0 -3,0 -12,-2 -13,-3 -4,-1 -14,-7 -15,-9 -1,-1 0,0 -1,-1 -1,-1 -3,-3 -4,-4 -1,0 -3,0 -4,1 -1,0 -1,2 -1,3 0,1 0,1 1,2l4 4c1,1 5,4 6,5 1,0 3,2 4,2 1,1 4,2 5,3 1,0 2,1 3,1l2 1c0,0 0,0 0,0 1,0 9,2 9,2l5 1c0,0 0,0 0,0l1 0c1,0 2,0 4,0l5 0 3 -1c1,0 4,0 6,-1 1,0 3,-1 5,-1 1,-1 4,-2 5,-2 0,-1 4,-2 5,-3 1,-1 3,-2 4,-3l11 -9c1,-2 2,-2 2,-4 1,-1 2,-2 3,-3 1,-2 4,-7 4,-8 0,-1 3,-7 3,-9 1,-3 1,-6 2,-10l0 -5c0,-1 0,-2 0,-3l0 -1c-1,-7 -3,-13 -5,-19 -1,-2 -3,-4 -3,-6 0,0 -3,-4 -4,-5 1,0 1,0 1,-1 0,0 0,0 1,0 0,-1 2,-3 3,-5 2,-2 2,-4 2,-7l0 0c-1,-1 -1,-1 -1,-3 -2,-3 -4,-3 -5,-4l-2 -1c-4,0 -4,1 -7,2 0,0 -1,0 -1,1l-5 4c-1,0 -3,-1 -3,-2 -2,0 -4,-1 -5,-2l-5 -2c0,0 0,0 -1,0 0,0 -8,-2 -8,-3l0 -4c9,-1 11,-13 5,-18 -3,-2 -5,-2 -8,-2 -4,0 -16,0 -19,1 -3,1 -5,2 -6,4 -2,4 0,7 0,9z"/>
 </g>
</svg>
