<?xml version="1.0" encoding="UTF-8"?>
<!DOCTYPE svg PUBLIC "-//W3C//DTD SVG 1.1//EN" "http://www.w3.org/Graphics/SVG/1.1/DTD/svg11.dtd">
<!-- Creator: CorelDRAW X8 -->
<svg xmlns="http://www.w3.org/2000/svg" xml:space="preserve" width="30px" height="40px" version="1.1" style="shape-rendering:geometricPrecision; text-rendering:geometricPrecision; image-rendering:optimizeQuality; fill-rule:evenodd; clip-rule:evenodd"
viewBox="0 0 30 40"
 xmlns:xlink="http://www.w3.org/1999/xlink">
 <defs>
  <style type="text/css">
   <![CDATA[
    .fil0 {fill:white}
   ]]>
  </style>
 </defs>
 <g id="Слой_x0020_1">
  <metadata id="CorelCorpID_0Corel-Layer"/>
  <path class="fil0" d="M7 26c1,0 1,0 2,0 1,0 1,0 2,-1 0,0 1,0 1,-1l0 -2c0,-2 0,-5 -1,-8 0,0 0,0 0,0 0,-2 -1,-3 -1,-5 -1,-1 -1,-1 -2,-2 0,0 1,0 2,0 1,1 2,2 3,2 0,0 0,1 0,1l1 1c1,1 1,1 2,3 0,0 0,0 0,0 1,2 2,4 2,6 0,0 0,2 0,2 0,1 0,1 0,1 0,1 0,2 1,2 1,1 1,1 2,1 1,0 1,0 2,0 0,0 0,0 0,0l-4 4c0,0 0,0 0,0 -1,1 -2,2 -3,3l-1 1 -8 -8zm22 -2l0 0c0,1 -1,1 -1,1l-7 7c0,1 0,1 -1,1 0,0 -1,1 -1,1 -1,1 -1,2 -2,2 0,1 -1,2 -2,2l0 0 0 0c0,0 -1,-1 -1,-1 0,0 -2,-2 -3,-3 0,0 0,0 -1,0l-7 -8c-1,-1 -2,-1 -1,-3 0,0 0,0 0,0 0,0 1,-1 1,-1l6 0 0 -1c0,-3 -1,-8 -2,-11 -1,-1 -2,-2 -3,-3 0,0 -1,-1 -1,-1 -1,-1 -2,-1 -2,-2 0,-1 1,-2 2,-2 1,0 2,1 3,1 0,0 1,0 2,0 1,0 2,1 3,1 1,1 2,1 3,2 1,1 2,2 3,3 0,0 0,0 0,0 0,0 0,0 0,0 0,1 1,2 1,2 1,1 2,2 2,3 0,2 1,3 1,4 0,1 1,3 1,4l5 0c1,0 2,1 2,2z"/>
 </g>
</svg>
