<?xml version="1.0" encoding="UTF-8"?>
<!DOCTYPE svg PUBLIC "-//W3C//DTD SVG 1.1//EN" "http://www.w3.org/Graphics/SVG/1.1/DTD/svg11.dtd">
<!-- Creator: CorelDRAW X8 -->
<svg xmlns="http://www.w3.org/2000/svg" xml:space="preserve" width="140px" height="90px" version="1.1" style="shape-rendering:geometricPrecision; text-rendering:geometricPrecision; image-rendering:optimizeQuality; fill-rule:evenodd; clip-rule:evenodd"
viewBox="0 0 140 90"
 xmlns:xlink="http://www.w3.org/1999/xlink">
 <defs>
  <style type="text/css">
   <![CDATA[
    .fil0 {fill:#FC0202}
   ]]>
  </style>
 </defs>
 <g id="Слой_x0020_1">
  <metadata id="CorelCorpID_0Corel-Layer"/>
  <g id="_1708623221744">
   <path class="fil0" d="M46 58l0 3c-1,0 -2,1 -3,1l1 -14c1,0 2,-1 3,-1l8 11c0,0 -2,1 -2,1 -1,-1 -2,-2 -2,-3 -1,0 -4,1 -5,2zm14 -8c1,0 2,1 3,2 0,0 1,1 1,1 1,1 1,1 2,2l-3 1c-2,-2 -2,-2 -4,-4 0,-1 0,-1 -1,-1 0,1 0,2 0,3 1,1 1,2 1,3 0,0 -2,1 -2,0 -1,-2 -4,-11 -4,-12 1,0 1,0 2,0 1,1 1,3 2,5 1,-1 1,-1 1,-2 0,-2 0,-4 1,-5 1,0 2,0 3,0 0,0 0,1 0,1 -1,1 -2,1 -2,3 0,1 0,1 0,3zm44 -9c0,-1 1,-1 2,-1 0,0 0,0 0,0l0 1c0,0 0,1 0,1 0,1 0,1 -2,1 0,-1 0,-1 0,-2zm-33 -1c0,0 1,-1 2,-1l3 10c2,0 1,0 2,3l0 2c0,0 0,0 -1,0 -1,0 -1,-1 -1,-1 0,-1 0,-1 0,-1 0,0 0,0 0,0 -1,0 -2,0 -2,1 -2,0 -6,1 -7,1 0,0 -3,-8 -3,-9 0,-1 -1,-2 -1,-3 1,0 2,-1 3,-1 0,1 0,2 0,3l3 7c1,0 4,0 4,-1 0,-1 -1,-4 -1,-5 0,-1 -2,-5 -1,-5zm5 -2c0,0 1,0 2,0 0,0 0,0 0,0 0,0 0,0 0,0 0,0 0,0 0,0 1,1 2,7 2,7 1,0 2,-8 3,-9 0,0 1,-1 2,-1 1,2 4,12 4,13 -1,0 -1,0 -2,0 -1,-1 -1,-2 -2,-3 0,-2 0,-4 -1,-4 0,1 -1,7 -2,8 0,1 -2,2 -3,1 0,0 -3,-11 -3,-12zm16 3c-1,0 -1,0 -2,-1 -2,-1 -2,-4 -1,-5 1,-2 7,-3 8,-3l2 6c1,1 2,5 2,6 -1,0 -1,1 -2,1l-1 -2c0,0 0,-1 0,-1l-1 -2c-2,0 -2,1 -3,3 0,1 0,2 -1,3 -1,1 -1,1 -3,1 1,-1 1,-2 1,-4 0,0 1,-1 1,-1 0,-1 0,-1 0,-1zm8 -10c1,-1 2,-1 3,-1 0,1 2,9 2,9l-1 1c-1,-2 -4,-8 -4,-9zm-56 55l0 0c1,-1 19,-17 20,-19 1,0 2,-2 3,-2 1,0 1,1 2,1l11 12c1,1 2,2 3,2 0,-1 2,-19 3,-21 2,0 6,1 8,1l8 1c2,0 5,1 7,1 2,0 6,1 8,1 0,-1 -3,-3 -4,-4l-4 -3c-2,-2 -5,-5 -7,-7 -1,0 -1,0 -1,-1 1,0 1,0 2,0l7 -2c6,-1 12,-2 18,-4 3,0 6,-1 9,-1l0 -1c0,0 0,0 -1,0 -1,0 -2,0 -2,0 -2,0 -3,-1 -4,-1 -4,0 -23,-2 -24,-2 1,-1 10,-6 11,-7 1,-1 3,-1 4,-2l7 -4c1,-1 2,-1 2,-1 1,-1 1,-1 2,-2l3 -1c0,0 0,0 0,0l1 -1c-1,0 -2,0 -2,0 -4,2 -8,2 -12,3l-13 3c-2,1 -7,2 -9,2 0,0 1,-2 2,-2l8 -13c1,0 1,-1 1,-1 1,-1 4,-5 4,-6 -2,1 -4,3 -6,4 0,0 -1,1 -2,1 -2,1 -12,7 -14,9 -2,1 -7,4 -8,4 -1,-1 -1,-3 -2,-4 0,-4 -3,-12 -4,-15 -1,2 -2,4 -3,6l-7 11c0,1 -3,5 -4,5 -1,0 -22,-10 -24,-10 0,1 3,8 4,9 0,2 1,4 1,5 1,1 2,4 2,5l-9 0c-4,0 -25,1 -26,2 0,0 0,0 0,0 1,0 2,1 3,1 2,1 21,8 21,8 0,1 -3,2 -4,2l-21 8c-2,1 -8,3 -9,4 3,0 6,-1 9,-1 2,0 5,0 8,0 5,-1 14,-2 18,-2 0,1 -2,2 -3,3 0,0 -1,1 -1,1l-8 7c-1,1 -11,9 -12,10 2,0 16,-6 18,-7 1,0 16,-7 17,-7 0,2 -5,20 -5,22z"/>
   <path class="fil0" d="M96 38c0,-2 0,-3 -1,-3 0,0 -2,0 -2,0 -3,1 -2,4 0,4 1,-1 1,-1 2,-1 0,0 0,0 1,0l0 0z"/>
   <path class="fil0" d="M46 54l0 1c1,0 2,0 3,-1 0,0 -2,-3 -3,-3 0,1 0,2 0,3z"/>
  </g>
 </g>
</svg>
