<svg xmlns="http://www.w3.org/2000/svg" width="30" height="40" shape-rendering="geometricPrecision" text-rendering="geometricPrecision" image-rendering="optimizeQuality" fill-rule="evenodd" clip-rule="evenodd"><path d="M7 26h2c1 0 1 0 2-1 0 0 1 0 1-1v-2c0-2 0-5-1-8 0-2-1-3-1-5L8 7h2c1 1 2 2 3 2v1l1 1c1 1 1 1 2 3s2 4 2 6v3c0 1 0 2 1 2 1 1 1 1 2 1h2l-4 4-3 3-1 1-8-8zm22-2c0 1-1 1-1 1l-7 7c0 1 0 1-1 1l-1 1c-1 1-1 2-2 2 0 1-1 2-2 2l-1-1-3-3h-1l-7-8c-1-1-2-1-1-3l1-1h6v-1c0-3-1-8-2-11L4 7 3 6C2 5 1 5 1 4s1-2 2-2 2 1 3 1h2c1 0 2 1 3 1 1 1 2 1 3 2l3 3c0 1 1 2 1 2 1 1 2 2 2 3 0 2 1 3 1 4s1 3 1 4h5c1 0 2 1 2 2z" fill="#fff"/></svg>