<svg xmlns="http://www.w3.org/2000/svg" width="72" height="72" shape-rendering="geometricPrecision" text-rendering="geometricPrecision" image-rendering="optimizeQuality" fill-rule="evenodd" clip-rule="evenodd"><path d="M72 37v-1c0-1 0-1-1-2-6-8-13-17-20-25l-5-7-2-2h-1c-1 0-2 1-2 2v2l2 2 2 4c5 5 10 12 15 17l5 7s1 2 2 2c-1 1-14 17-14 18L42 67l-1 1c0 1 0 4 2 4 1 0 1 0 2-1l4-5c1-1 1-2 2-2l13-17c1-1 3-4 4-5l4-5zM0 37c3 0 5 1 7 3 2 1 4 3 6 4 5 3 10 5 16 3 0 0 1 0 2-1h1l3-2c2-2 4-3 7-5 2-1 3-2 7-2 2 0 3 0 4 1 1 0 3 1 4 1 2-4 3-4 0-5-3-2-7-3-11-2-6 0-10 4-15 7-3 3-4 3-8 3-3 0-5-1-8-3-5-3-8-8-15-8v6zm0 16c3 1 4 1 7 3 1 1 3 2 5 4 4 2 7 4 12 4 6 0 9-2 13-5 1-1 4-3 5-4 7-4 7 1 7-4v-3c-3 0-5 0-7 1s-4 2-6 4c-4 3-7 5-12 6-8 0-11-6-17-9-3-2-4-2-7-2v5zm0-33c6 0 10 6 16 9 3 1 5 2 7 2 6 0 9-1 13-4 0-1 1-1 2-2 2-1 3-2 5-3s2-1 3-2v-5c-1 0-5 2-6 2-2 1-4 3-5 4-4 2-7 5-12 4-9 0-13-10-23-10v5z" fill="#ff5916"/></svg>