<svg xmlns="http://www.w3.org/2000/svg" width="72" height="72" shape-rendering="geometricPrecision" text-rendering="geometricPrecision" image-rendering="optimizeQuality" fill-rule="evenodd" clip-rule="evenodd"><path d="M4 0h68v72H0V0h4zm60 8H40v56h24V8zM32 8H8v56h24V8z" fill="#ff5916"/><path d="M37 3l31-1 1 38 1 28c-12 0-23 0-35 1V44c-1-14-1-28-2-41h4zm28 2L36 6l2 60 29-1-2-60zm-4 4H40l2 53 21-1-2-52zM39 6h25l1 33 1 25c-9 0-18 1-27 1-1-20-1-39-2-59h2z" fill="#fff" fill-rule="nonzero"/><path d="M38 6l27-1c1 20 1 40 2 59l-29 1-2-59h2zm24 3l-23 1 2 51h22L62 9z" fill="#ff5916" fill-rule="nonzero"/></svg>