<svg xmlns="http://www.w3.org/2000/svg" width="72" height="72" shape-rendering="geometricPrecision" text-rendering="geometricPrecision" image-rendering="optimizeQuality" fill-rule="evenodd" clip-rule="evenodd"><path d="M36 47L17 66c-1 1-3 2-5 2-4 0-9-6-4-11l6-6 10-10c1 0 3-3 3-3l9 9zm11-24l3-3c1-1 2-2 3-4 1-1 3-4 4-6 0-1 1-2 1-2 1-1 5-3 7-4l1 1 1 1 1 1-3 5c-1 2-1 2-3 3-1 0-2 1-2 1-5 2-4 2-8 6l-3 3-5 5s-2 1-2 2c0-1-2-2-2-2l7-7zm21 30c-1 0-3-2-4-3s-2-1-4-2c-4 0-6 3-8 5-1 3 0 7 2 9l1 1 5 3v1h1c-1 0-2 1-3 1-3 0-6 0-8-2-4-2-6-6-6-11v-3c0-2-1-4-2-5l-3-3-3-3-10-10c-1-2-2-3-4-3-3-1-4 0-7 0s-6-2-9-5c0-1-2-3-2-4l2 1c2 2 3 3 6 3 4 1 6-2 8-4 1-4 0-7-2-9-1-1-6-5-7-5 1-1 3-1 3-1 3 0 6 0 8 2 4 2 6 6 6 10v3c0 4 1 5 3 7l15 15c1 1 2 2 4 3h7c3 0 6 2 8 4 1 1 3 3 3 5zM25 35c-1 0-15 14-15 15-2 1-3 2-4 4-1 1-2 2-3 4-2 3-1 7 1 10h1c1 1 1 2 2 2 3 2 6 3 9 1 2-1 3-2 4-3l18-18h1c1 0 1 2 1 3 0 4 1 8 3 12 2 3 6 6 12 7 3 0 6-1 8-2 1-1 3-1 3-2 1-2-1-2-2-3l-7-5-1-1c-1-2-1-4 1-5 0-1 0-1 1-1 1-1 3-1 4 0 2 2 4 3 7 5 0 0 1 1 2 1 1-1 1-2 1-4 0-3-1-5-2-7-3-5-9-9-16-8-2 0-3 0-4-1s-2-1-3-2c0-1-2-2-2-3 0 0 3-3 4-3l7-8c2-2 3-2 5-3 1-1 4-2 5-3s2-2 3-4c1-1 2-4 3-5 0-1 0-2-1-3 0-1-1-2-2-2-1-1-2-3-5-3-1 1-4 2-5 3-2 1-3 1-4 3-1 1-1 2-2 2 0 1-1 2-1 3-1 2-1 3-3 4L39 25s-1 2-2 2l-5-5c-1-2 0-5 0-9C30 2 17-3 7 2c0 1-1 1-1 2v2s2 1 3 2c2 1 4 2 6 4 1 0 2 1 2 3 0 1 0 1-1 2l-1 1c-1 1-2 2-4 1 0 0-1 0-1-1-1 0-1 0-2-1l-5-4c-2 0-3 0-3 2 0 10 8 18 18 17 3-1 4 0 5 2 1 0 1 1 2 1z" fill="#ff5916"/></svg>