<svg xmlns="http://www.w3.org/2000/svg" width="72" height="72" shape-rendering="geometricPrecision" text-rendering="geometricPrecision" image-rendering="optimizeQuality" fill-rule="evenodd" clip-rule="evenodd"><path d="M56 39c-1 0-1-1-2-1-1-1-1 0-2 0s-1-1-1-2h-2c0-1 1 0 0-1 0-1 1-2 1-2l1 1 1-1 2 1c0-1 1-1 1-1v1c1 0 1 0 1 1l-1 1v2s1 0 1 1zm-6-7l-4-1c-1-1 0 0-1 0h-4 2c1 0 1 0 2 1h1l2 1v3c-1 0-1 1-1 1-2 1-4 2-5 3-1 0-1 1-1 1h1l5-3h2v2l-3 1h3l-1 2v3c0-1 0-2 1-2v-1c0-1 1-2 1-3v-1l1 1h1s1 0 1-1v2l1 1v2c1 2 2 4 2 5v1c0 1 1 2 1 2v-2c-1-2-1-4-1-6l-1-1 2-2h-1l-1 1v-2h2v1l3 2c1 1 2 1 2 2 1 0 1 1 1 1h1l-2-2s-1-1-1-2l-2-1c0-1-1-1-1-2l-1-1v-2h1v-1h3l2 1h2v-1s1 0 1-1c0 1 0 1-1 1 0 1-1 1-1 1s-2-2-3-2v-1l1-1c-1 0-1 1-2 2h-1c-1 0-1 0-2-1 0 0-1 0-1-1 1 0 1 0 1-1l1-2v-3h1l1-2h1-1l-2 2c-1 1-1 0-1 2v1l-1 1-1 1-1 1h-3v-4c1-1 1-2 1-2h-1v-1l-2-2v1l1 1 1 1c-1 1-1 4-1 4v2zM2 0h70v72H0V0h2zm66 4H38v64h30V4zM34 4H4v64h30V4z" fill="#ff5916"/></svg>