<svg xmlns="http://www.w3.org/2000/svg" width="72" height="72" shape-rendering="geometricPrecision" text-rendering="geometricPrecision" image-rendering="optimizeQuality" fill-rule="evenodd" clip-rule="evenodd"><path d="M35 46h9c2 0 2 1 2 3v4c0 6 0 3 1 5v2l-2 3c-1 3-6 4-9 2-2-1-2-2-4-5 0-1 0-2 1-3 1 0 0-1 0-1v-7c0-1 0-2 2-3zM16 18c2-1 3 0 4 1 1 0 2 1 2 1l32 17c1 1 2 1 2 1v2c-1 1-3 0-5 0H23c-1 0-3 0-3-1-1-1 1-4-4-4h-5c-2 0-3-1-4-2-1 0 0-2 0-3v-4c0-1 3-4 4-5 1 0 4-3 5-3zm-3 28h11c3 0 3 0 3 7s0 6-3 7c-1 0-3 0-3 1 0 2 1 3 2 3 2 2 4 3 6 4 2 2 4 3 7 4 4 1 9 0 12-3l7-5 1-1c1-2 0-3-1-3-2-1-3 0-3-3v-9c0-2 2-2 4-2h10c2 0 4 0 5-1 1 0 1-1 1-3-1-1-2-1-3-2-6-4-13-7-19-11-3-1-5-2-7-3s-4-3-6-4l-13-7c-1 0-3-1-2-3 0 0 4-4 5-4 1-1 1-2 3-2s3 0 5-1c1 0 1-1 1-3 0-1-1-2-3-2h-5c-2 0-3 1-4 2L11 13l-5 5c-2 1-4 3-5 5s-1 5-1 8v9h13v6z" fill="#ff5916"/></svg>