<?xml version="1.0" encoding="UTF-8"?>
<!DOCTYPE svg PUBLIC "-//W3C//DTD SVG 1.1//EN" "http://www.w3.org/Graphics/SVG/1.1/DTD/svg11.dtd">
<!-- Creator: CorelDRAW X8 -->
<svg xmlns="http://www.w3.org/2000/svg" xml:space="preserve" width="72px" height="72px" version="1.1" style="shape-rendering:geometricPrecision; text-rendering:geometricPrecision; image-rendering:optimizeQuality; fill-rule:evenodd; clip-rule:evenodd"
viewBox="0 0 72 72"
 xmlns:xlink="http://www.w3.org/1999/xlink">
 <defs>
  <style type="text/css">
   <![CDATA[
    .fil0 {fill:#FF5916}
   ]]>
  </style>
 </defs>
 <g id="Слой_x0020_1">
  <metadata id="CorelCorpID_0Corel-Layer"/>
  <path class="fil0" d="M67 0l-10 6 0 6 -22 22 -3 -3c-1,-2 -3,-2 -4,0 -1,1 -2,1 -2,1l1 1c0,0 0,0 0,0 -6,6 -9,7 -9,7l-17 18c-1,1 -1,2 0,3l10 10c1,1 2,1 3,0l17 -17c0,0 2,-4 7,-9l1 1c0,0 1,-1 2,-2 1,-1 1,-3 0,-4l-3 -3 22 -22 6 0 6 -10 -5 -5 0 0zm-64 59l17 -17 2 2 -17 17 -2 -2 0 0zm4 4l17 -17 2 2 -17 17 -2 -2 0 0zm6 6l-2 -2 17 -17 2 2 -17 17 0 0z"/>
 </g>
</svg>
