<?xml version="1.0" encoding="UTF-8"?>
<!DOCTYPE svg PUBLIC "-//W3C//DTD SVG 1.1//EN" "http://www.w3.org/Graphics/SVG/1.1/DTD/svg11.dtd">
<!-- Creator: CorelDRAW X8 -->
<svg xmlns="http://www.w3.org/2000/svg" xml:space="preserve" width="72px" height="72px" version="1.1" style="shape-rendering:geometricPrecision; text-rendering:geometricPrecision; image-rendering:optimizeQuality; fill-rule:evenodd; clip-rule:evenodd"
viewBox="0 0 72 72"
 xmlns:xlink="http://www.w3.org/1999/xlink">
 <defs>
  <style type="text/css">
   <![CDATA[
    .fil0 {fill:#FF5916}
   ]]>
  </style>
 </defs>
 <g id="Слой_x0020_1">
  <metadata id="CorelCorpID_0Corel-Layer"/>
  <path class="fil0" d="M72 37l0 -1c0,-1 0,-1 -1,-2 -6,-8 -13,-17 -20,-25l-5 -7c-1,-1 -2,-2 -2,-2l0 0 -1 0c-1,0 -2,1 -2,2 0,1 0,1 0,2 0,0 2,2 2,2l2 4c5,5 10,12 15,17l5 7c0,0 1,2 2,2 -1,1 -14,17 -14,18l-11 13c0,0 -1,1 -1,1 0,1 0,4 2,4 1,0 1,0 2,-1l4 -5c1,-1 1,-2 2,-2l13 -17c1,-1 3,-4 4,-5l4 -5zm-72 0c3,0 5,1 7,3 2,1 4,3 6,4 5,3 10,5 16,3 0,0 1,0 2,-1 0,0 0,0 1,0 0,0 0,0 0,0l3 -2c2,-2 4,-3 7,-5 2,-1 3,-2 7,-2 2,0 3,0 4,1 1,0 3,1 4,1 2,-4 3,-4 0,-5 -3,-2 -7,-3 -11,-2 -6,0 -10,4 -15,7 -3,3 -4,3 -8,3 -3,0 -5,-1 -8,-3 -5,-3 -8,-8 -15,-8l0 6zm0 16c3,1 4,1 7,3 1,1 3,2 5,4 4,2 7,4 12,4 6,0 9,-2 13,-5 1,-1 4,-3 5,-4 7,-4 7,1 7,-4 0,-1 0,-2 0,-3 -3,0 -5,0 -7,1 -2,1 -4,2 -6,4 -4,3 -7,5 -12,6 -8,0 -11,-6 -17,-9 -3,-2 -4,-2 -7,-2l0 5zm0 -33c6,0 10,6 16,9 3,1 5,2 7,2 6,0 9,-1 13,-4 0,-1 1,-1 2,-2 2,-1 3,-2 5,-3 2,-1 2,-1 3,-2 0,0 0,-4 0,-5 -1,0 -5,2 -6,2 -2,1 -4,3 -5,4 -4,2 -7,5 -12,4 -9,0 -13,-10 -23,-10l0 5z"/>
 </g>
</svg>
