<?xml version="1.0" encoding="UTF-8"?>
<!DOCTYPE svg PUBLIC "-//W3C//DTD SVG 1.1//EN" "http://www.w3.org/Graphics/SVG/1.1/DTD/svg11.dtd">
<!-- Creator: CorelDRAW X8 -->
<svg xmlns="http://www.w3.org/2000/svg" xml:space="preserve" width="72px" height="72px" version="1.1" style="shape-rendering:geometricPrecision; text-rendering:geometricPrecision; image-rendering:optimizeQuality; fill-rule:evenodd; clip-rule:evenodd"
viewBox="0 0 72 72"
 xmlns:xlink="http://www.w3.org/1999/xlink">
 <defs>
  <style type="text/css">
   <![CDATA[
    .fil0 {fill:#FF5916}
   ]]>
  </style>
 </defs>
 <g id="Слой_x0020_1">
  <metadata id="CorelCorpID_0Corel-Layer"/>
  <path class="fil0" d="M36 47c0,0 -18,18 -19,19 -1,1 -3,2 -5,2 -4,0 -9,-6 -4,-11 2,-2 4,-4 6,-6l10 -10c1,0 3,-3 3,-3l9 9zm11 -24c1,-1 2,-2 3,-3 1,-1 2,-2 3,-4 1,-1 3,-4 4,-6 0,-1 1,-2 1,-2 1,-1 5,-3 7,-4 0,0 0,0 1,1 0,0 0,0 1,1 1,1 1,1 1,1l-3 5c-1,2 -1,2 -3,3 -1,0 -2,1 -2,1 -5,2 -4,2 -8,6 -1,1 -2,2 -3,3l-5 5c0,0 -2,1 -2,2 0,-1 -2,-2 -2,-2l7 -7zm21 30c-1,0 -3,-2 -4,-3 -1,-1 -2,-1 -4,-2 -4,0 -6,3 -8,5 -1,3 0,7 2,9 0,0 1,1 1,1l5 3c0,0 0,0 0,1l1 0c-1,0 -2,1 -3,1 -3,0 -6,0 -8,-2 -4,-2 -6,-6 -6,-11 0,-1 0,-2 0,-3 0,-2 -1,-4 -2,-5 -1,-1 -2,-2 -3,-3 -1,-1 -2,-2 -3,-3l-10 -10c-1,-2 -2,-3 -4,-3 -3,-1 -4,0 -7,0 -3,0 -6,-2 -9,-5 0,-1 -2,-3 -2,-4l2 1c2,2 3,3 6,3 4,1 6,-2 8,-4 1,-4 0,-7 -2,-9 -1,-1 -6,-5 -7,-5 1,-1 3,-1 3,-1 3,0 6,0 8,2 4,2 6,6 6,10 0,1 0,2 0,3 0,4 1,5 3,7l15 15c1,1 2,2 4,3 1,0 2,0 3,0 2,0 2,0 4,0 3,0 6,2 8,4 1,1 3,3 3,5zm-43 -18c-1,0 -15,14 -15,15 -2,1 -3,2 -4,4 -1,1 -2,2 -3,4 -2,3 -1,7 1,10 0,0 1,0 1,0 1,1 1,2 2,2 3,2 6,3 9,1 2,-1 3,-2 4,-3l18 -18c1,0 1,0 1,0 1,0 1,2 1,3 0,4 1,8 3,12 2,3 6,6 12,7 3,0 6,-1 8,-2 1,-1 3,-1 3,-2 1,-2 -1,-2 -2,-3l-7 -5c0,0 -1,-1 -1,-1 -1,-2 -1,-4 1,-5 0,-1 0,-1 1,-1 1,-1 3,-1 4,0 2,2 4,3 7,5 0,0 1,1 2,1 1,-1 1,-2 1,-4 0,-3 -1,-5 -2,-7 -3,-5 -9,-9 -16,-8 -2,0 -3,0 -4,-1 -1,-1 -2,-1 -3,-2 0,-1 -2,-2 -2,-3 0,0 3,-3 4,-3l7 -8c2,-2 3,-2 5,-3 1,-1 4,-2 5,-3 1,-1 2,-2 3,-4 1,-1 2,-4 3,-5 0,-1 0,-2 -1,-3 0,-1 -1,-2 -2,-2 -1,-1 -2,-3 -5,-3 -1,1 -4,2 -5,3 -2,1 -3,1 -4,3 -1,1 -1,2 -2,2 0,1 -1,2 -1,3 -1,2 -1,3 -3,4l-10 10c0,0 -1,2 -2,2l-5 -5c-1,-2 0,-5 0,-9 -2,-11 -15,-16 -25,-11 0,1 -1,1 -1,2 0,0 0,1 0,2 0,0 2,1 3,2 2,1 4,2 6,4 1,0 2,1 2,3 0,1 0,1 -1,2 0,0 -1,1 -1,1 -1,1 -2,2 -4,1 0,0 -1,0 -1,-1 -1,0 -1,0 -2,-1 0,0 -5,-4 -5,-4 -2,0 -3,0 -3,2 0,10 8,18 18,17 3,-1 4,0 5,2 1,0 1,1 2,1z"/>
 </g>
</svg>
