<?xml version="1.0" encoding="UTF-8"?>
<!DOCTYPE svg PUBLIC "-//W3C//DTD SVG 1.1//EN" "http://www.w3.org/Graphics/SVG/1.1/DTD/svg11.dtd">
<!-- Creator: CorelDRAW X8 -->
<svg xmlns="http://www.w3.org/2000/svg" xml:space="preserve" width="72px" height="72px" version="1.1" style="shape-rendering:geometricPrecision; text-rendering:geometricPrecision; image-rendering:optimizeQuality; fill-rule:evenodd; clip-rule:evenodd"
viewBox="0 0 72 72"
 xmlns:xlink="http://www.w3.org/1999/xlink">
 <defs>
  <style type="text/css">
   <![CDATA[
    .fil0 {fill:#FF5916}
   ]]>
  </style>
 </defs>
 <g id="Слой_x0020_1">
  <metadata id="CorelCorpID_0Corel-Layer"/>
  <path class="fil0" d="M56 39c-1,0 -1,-1 -2,-1 0,0 0,0 0,0 -1,-1 -1,0 -2,0 0,0 0,0 0,0 -1,0 -1,-1 -1,-2 0,0 -1,0 -2,0 0,-1 1,0 0,-1 0,-1 1,-2 1,-2 0,0 1,1 1,1 0,0 0,0 1,-1 0,0 0,0 0,0 0,0 2,1 2,1l0 0c0,-1 1,-1 1,-1 0,0 0,0 0,0 0,0 0,1 0,1 1,0 1,0 1,1l-1 1c0,0 0,0 0,0l0 2c0,0 1,0 1,1zm-6 -7l-4 -1c-1,-1 0,0 -1,0l-4 0c0,0 0,0 0,0 1,0 1,0 1,0 0,0 1,0 1,0 1,0 1,0 2,1 0,0 1,0 1,0 0,0 2,1 2,1 0,1 0,3 0,3 -1,0 -1,1 -1,1 -2,1 -4,2 -5,3 -1,0 -1,1 -1,1l0 0c0,0 0,0 1,0l5 -3c0,0 1,0 1,0 0,0 1,0 1,0 0,0 0,2 0,2l-3 1 0 0c1,0 1,0 2,0 0,0 0,0 1,0 0,0 0,0 0,0l-1 2c0,1 0,2 0,3l0 0c0,-1 0,-2 1,-2 0,0 0,-1 0,-1 0,-1 1,-2 1,-3l0 -1c0,0 1,1 1,1 0,0 0,0 1,0 0,0 0,0 0,0 0,0 1,0 1,-1 0,1 0,1 0,1 0,0 0,1 0,1 0,0 0,0 1,1l0 2c1,2 2,4 2,5 0,1 0,1 0,1 0,1 1,2 1,2l0 0c0,-1 0,-1 0,-2 -1,-2 -1,-4 -1,-6 0,0 -1,-1 -1,-1 1,-1 2,-2 2,-2 -1,0 -1,0 -1,0l0 0c0,0 -1,1 -1,1 0,0 0,-2 0,-2 0,0 1,0 2,0 0,0 0,1 0,1l3 2c1,1 2,1 2,2 1,0 1,1 1,1 1,0 1,0 1,0 0,0 -1,-1 -2,-2 0,0 -1,-1 -1,-2l-2 -1c0,-1 -1,-1 -1,-2 0,0 0,0 0,0 -1,-1 -1,-1 -1,-1l0 -2c0,0 0,0 1,0 0,0 0,0 0,-1 2,0 2,0 3,0 0,0 2,1 2,1 1,0 1,0 1,0 0,0 0,0 0,0 0,0 1,0 1,0l0 -1c0,0 1,0 1,-1 0,1 0,1 -1,1l0 0c0,0 0,0 0,0 0,1 -1,1 -1,1 0,0 -2,-2 -3,-2 0,0 0,0 0,0 0,0 0,0 0,-1l1 -1c0,0 0,0 0,0 0,0 0,0 0,0 0,0 0,0 0,0 -1,0 -1,1 -2,2 0,0 0,0 -1,0 -1,0 -1,0 -2,-1 0,0 -1,0 -1,-1 0,0 0,0 0,0 1,0 1,0 1,-1 0,0 1,-2 1,-2 0,0 0,-1 0,-2 0,0 0,0 0,-1l1 0c0,0 0,0 0,0l1 -2c0,0 1,0 1,0 0,0 0,0 0,0 -1,0 -1,0 -1,0 -1,1 -1,1 -2,2 -1,1 -1,0 -1,2 0,0 0,1 0,1 0,0 -1,1 -1,1l-1 1c-1,1 -1,1 -1,1 0,0 0,0 0,0 0,0 0,0 -1,0 0,0 0,0 0,0 0,0 0,0 0,0 0,0 0,0 -1,0l0 0c0,0 0,0 0,0l-1 0c0,0 0,-1 0,-1 0,-1 0,-2 0,-3 1,-1 1,-2 1,-2 0,0 -1,0 -1,0 0,0 0,0 0,-1l-2 -2c0,0 0,0 0,0 0,0 0,1 0,1 0,0 0,0 1,1 0,0 0,0 0,0l1 1c0,0 0,0 0,0 -1,1 -1,4 -1,4 0,1 0,2 0,2zm-48 -32l70 0 0 72 -72 0 0 -72 2 0zm66 4l-30 0 0 64 30 0 0 -64zm-34 0l-30 0 0 64 30 0 0 -64z"/>
 </g>
</svg>
