<?xml version="1.0" encoding="UTF-8"?>
<!DOCTYPE svg PUBLIC "-//W3C//DTD SVG 1.1//EN" "http://www.w3.org/Graphics/SVG/1.1/DTD/svg11.dtd">
<!-- Creator: CorelDRAW X8 -->
<svg xmlns="http://www.w3.org/2000/svg" xml:space="preserve" width="72px" height="72px" version="1.1" style="shape-rendering:geometricPrecision; text-rendering:geometricPrecision; image-rendering:optimizeQuality; fill-rule:evenodd; clip-rule:evenodd"
viewBox="0 0 72 72"
 xmlns:xlink="http://www.w3.org/1999/xlink">
 <defs>
  <style type="text/css">
   <![CDATA[
    .fil0 {fill:#FF5916}
   ]]>
  </style>
 </defs>
 <g id="Слой_x0020_1">
  <metadata id="CorelCorpID_0Corel-Layer"/>
  <path class="fil0" d="M35 46c0,0 8,0 9,0 2,0 2,1 2,3 0,1 0,3 0,4 0,6 0,3 1,5 0,1 0,1 0,2l-2 3c-1,3 -6,4 -9,2 -2,-1 -2,-2 -4,-5 0,-1 0,-2 1,-3 1,0 0,-1 0,-1l0 -7c0,-1 0,-2 2,-3zm-19 -28c2,-1 3,0 4,1 1,0 2,1 2,1l32 17c1,1 2,1 2,1 0,1 0,2 0,2 -1,1 -3,0 -5,0l-28 0c-1,0 -3,0 -3,-1 -1,-1 1,-4 -4,-4 -2,0 -4,0 -5,0 -2,0 -3,-1 -4,-2 -1,0 0,-2 0,-3 0,-1 0,-3 0,-4 0,-1 3,-4 4,-5 1,0 4,-3 5,-3zm-3 28c1,0 9,0 11,0 3,0 3,0 3,7 0,7 0,6 -3,7 -1,0 -3,0 -3,1 0,2 1,3 2,3 2,2 4,3 6,4 2,2 4,3 7,4 4,1 9,0 12,-3l7 -5c0,0 1,-1 1,-1 1,-2 0,-3 -1,-3 -2,-1 -3,0 -3,-3 0,-3 0,-6 0,-9 0,-2 2,-2 4,-2l10 0c2,0 4,0 5,-1 1,0 1,-1 1,-3 -1,-1 -2,-1 -3,-2 -6,-4 -13,-7 -19,-11 -3,-1 -5,-2 -7,-3 -2,-1 -4,-3 -6,-4l-13 -7c-1,0 -3,-1 -2,-3 0,0 4,-4 5,-4 1,-1 1,-2 3,-2 2,0 3,0 5,-1 1,0 1,-1 1,-3 0,-1 -1,-2 -3,-2 -1,0 -4,0 -5,0 -2,0 -3,1 -4,2l-13 11c-2,2 -3,3 -5,5 -2,1 -4,3 -5,5 -1,2 -1,5 -1,8 0,3 0,6 0,9l13 0 0 6z"/>
 </g>
</svg>
