<svg xmlns="http://www.w3.org/2000/svg" width="234" height="234" shape-rendering="geometricPrecision" text-rendering="geometricPrecision" image-rendering="optimizeQuality" fill-rule="evenodd" clip-rule="evenodd"><circle cx="117" cy="117" r="117" fill="#ff5916"/><path d="M88 141c2 1 10 10 11 10 0-1 1-1 1-2l-9-9s0-1-1-1l-2 2zm39-38l10 10c0-1 1-1 1-2l-10-10s-1 1-1 2zm12-13l10 10 2-2-5-5c-2-1-3-3-5-5l-2 2zm-15 35c1 0 1-1 2-1l-8-8-2-2c-1 0-2 1-2 1l10 10zm-23 3l10 10c1 0 2-1 2-2l-10-10c-1 1-2 1-2 2zm54-20c0-1 0-3 3-1 0 1 2 3 2 3 0 1 0 3-3 1 0-1-2-3-2-3zm-2 0c1 1 3 4 4 5 2 1 5-1 5-3-1-1-2-2-2-3-1 0-2-1-2-2-2-1-5 1-5 3zm-29 32c0-1-1-3 1-3 1 0 1 2 1 3 0 3 0 5 2 5l4-4-1-1-3 3c0-3 0-7-2-7-3-1-5 3-3 5l1-1zm-16 15c0-1 0-2 2-2 1 0 0 2 0 2l1 1h1c1 0 1 0 2 1 0 2-3 1-3 1 0 1 0 1-1 1 5 3 8-5 2-5 0-2-2-3-4-2-1 0-2 2-1 4 1 0 1-1 1-1zm12-46l7 7 2-2s-3-3-4-3c-1-1-2-3-3-4l-2 2zm-25 25c1 1 2 3 3 4 1 0 3 3 4 3l2-1-7-7h-1v-1c0 1-1 2-1 2zm38-38c1 1 2 3 3 4 1 0 3 3 4 3s1-1 2-1l-4-4c-1-1-2-2-3-4l-2 2zm-26 26c2 1 7 6 8 7 0-1 1-2 1-2-1-1-2-3-3-4l-4-3-2 2zm33 1c1 0 4 4 5 5l2-1c-1-1-6-7-7-7-2 1-1 1-2 4 1 0 1 1 2 1v-2zm4-58c1 0 1 1 2 1l31 32c1 0 10 10 11 10l7-7c0-1-6-6-7-7-1-2-2-3-4-4-1-1-2-3-3-4 0-1 2-2 1-7-2-5-7-10-13-9-2 0-2 1-3 2-1-1-13-14-14-15l-8 8zm-76 78s5-2 6-2c2-1 4-2 5-3 5-3 10-7 14-10l1-1 13-13 26-26 4-4 4-4c8 8 16 16 24 23 1 2 8 8 8 8 0 1-1 2-2 2l-10 11-6 6-18 18c-4 3-11 11-15 14-1 1-2 2-4 3-7 5-20 9-26 2-4-3-9-8-12-12-2-2-11-10-12-12zm39-46c1 0 13-13 13-13l-5-5s-3-4-4-4c0 5 1 6-1 12 0 3-1 5-2 7 0 1-1 2-1 3zm-29-7c-6 2-13 9-14 14-1 8 9 5 16-3 4-7 4-12-2-11zm20-9c-1 16-21 36-35 41-7 3-17 5-16-6s12-25 20-31c5-4 10-7 16-10 3-1 7-3 11-2s5 4 4 8zm-9-16c-6 0-8 1-13 4-10 5-21 14-27 23-5 6-10 16-10 25-1 10 7 17 18 16 16-2 33-18 40-28 4-6 10-15 10-24 0-11-7-18-18-16zm12 115c10 0 17-4 24-10 3-1 4-2 6-4l7-7c3-3 6-6 9-10 9-9 19-19 29-28l7-7c0-1 2-2 2-3-1-1-2-2-3-2l-30-30c-3-4-8-8-11-11l-10 10-10 10-10 10c-2 2-3 4-5 5l-5 5-5 5-5 5c-8 7-15 13-25 17-2 1-5 1-8 2h-9l3 3 9 9c7 7 16 16 24 23 3 4 9 8 16 8zM86 18c5-2 10-3 15-4 6 0 11-1 16-1 21 0 40 6 57 17 17 10 30 26 39 44l-3 1c-8-17-22-32-38-43-16-10-35-16-55-16-5 0-10 1-15 1-5 1-10 2-15 4l-1-3zm136 93v8c0 23-7 44-20 62s-32 31-54 38l-1-3c22-6 40-19 53-37 12-17 19-38 19-60v-8h3zM92 221c-24-6-44-19-58-38-14-17-22-40-22-64 0-17 3-32 10-46 6-14 16-26 28-36l2 2C40 49 31 61 24 75c-6 13-9 28-9 44 0 23 8 45 21 63 14 17 34 30 56 36v3zm86-170c9 9 16 19 22 31 5 11 7 24 7 37 0 6 0 13-2 19-1 6-3 12-6 18l-3-1c3-6 5-12 6-18 2-6 2-12 2-18 0-13-2-25-7-36s-12-21-21-29l2-3zm-1 135c-9 8-18 13-28 17s-21 6-32 6c-14 0-28-3-40-9-12-7-23-16-32-27l3-1c8 10 18 19 30 25s25 9 39 9c11 0 21-2 31-6 10-3 19-9 27-16l2 2zM28 136c0-3-1-6-1-9v-8c0-25 10-48 26-64 16-17 39-27 64-27 5 0 10 1 15 1 5 1 10 2 14 4l-1 3c-4-2-9-3-14-4-4 0-9-1-14-1-24 0-46 10-62 26s-25 37-25 62v8c0 3 1 5 1 8l-3 1z" fill="#fff"/></svg>