<svg xmlns="http://www.w3.org/2000/svg" width="234" height="234" shape-rendering="geometricPrecision" text-rendering="geometricPrecision" image-rendering="optimizeQuality" fill-rule="evenodd" clip-rule="evenodd"><circle cx="117" cy="117" r="117" fill="#ff5916"/><path d="M86 18c5-2 10-3 15-4 6 0 11-1 16-1 21 0 40 6 57 17 17 10 30 26 39 44l-3 1c-8-17-22-32-38-43-16-10-35-16-55-16-5 0-10 1-15 1-5 1-10 2-15 4l-1-3zm136 93v8c0 23-7 44-20 62s-32 31-54 38l-1-3c22-6 40-19 53-37 12-17 19-38 19-60v-8h3zM92 221c-24-6-44-19-58-38-14-17-22-40-22-64 0-17 3-32 10-46 6-14 16-26 28-36l2 2C40 49 31 61 24 75c-6 13-9 28-9 44 0 23 8 45 21 63 14 17 34 30 56 36v3zm86-170c9 9 16 19 22 31 5 11 7 24 7 37 0 6 0 13-2 19-1 6-3 12-6 18l-3-1c3-6 5-12 6-18 2-6 2-12 2-18 0-13-2-25-7-36s-12-21-21-29l2-3zm-1 135c-9 8-18 13-28 17s-21 6-32 6c-14 0-28-3-40-9-12-7-23-16-32-27l3-1c8 10 18 19 30 25s25 9 39 9c11 0 21-2 31-6 10-3 19-9 27-16l2 2zM28 136c0-3-1-6-1-9v-8c0-25 10-48 26-64 16-17 39-27 64-27 5 0 10 1 15 1 5 1 10 2 14 4l-1 3c-4-2-9-3-14-4-4 0-9-1-14-1-24 0-46 10-62 26s-25 37-25 62v8c0 3 1 5 1 8l-3 1zm80-88c0 2 1 11 1 14 5 1 9-1 17 2s16 8 21 15c2 2 6 9 7 12-2 1-14 4-14 5l14 7c2 1 13 7 15 7 1-3 8-17 10-21 1-2 3-6 3-8-2 1-5 2-7 3-2 0-7 2-8 2 0 0-1-3-2-4-3-9-11-18-19-23-10-8-21-12-38-11zm-23 82c0-1-19-10-21-11l-8-4-14 29c3 0 13-5 16-5 1 3 2 6 4 9 2 5 6 9 10 13l3 3c10 9 26 15 42 13 0-1-1-8-1-10l-1-4h-9c-11-2-21-8-28-17-2-1-7-9-7-12l14-4zm-27-20c3 0 23 1 24 0s4-22 4-26c2 3 3 23 5 26h24c0-2-2-8-3-10-4-9-9-14-17-18 0 0-1-1-2-1-1-1-2-1-3-1s-2 3-4 3l-3-3c-4 0-14 7-17 11-2 2-3 5-5 8-1 2-3 9-3 11zm92 39v-3l4 26h25c-1-4-3-10-4-13-3-7-9-12-15-16-8-3-5-2-10 2 0-1-3-3-3-4-3 0-8 3-10 5-3 2-5 3-7 6-4 4-8 14-8 20h24l4-23zm-2-39c-7 2-14 8-12 17 1 8 8 14 16 13 13-2 18-18 8-27-3-2-7-3-12-3zM84 49c-9 2-14 9-12 18 1 7 8 13 17 12 7-2 14-9 12-18-1-7-8-13-17-12z" fill="#fff" fill-rule="nonzero"/></svg>