<svg xmlns="http://www.w3.org/2000/svg" width="110" height="110" shape-rendering="geometricPrecision" text-rendering="geometricPrecision" image-rendering="optimizeQuality" fill-rule="evenodd" clip-rule="evenodd"><defs><style>.fil1{fill:#fff}</style></defs><g id="Слой_x0020_1"><g id="_2540143155440"><circle cx="55" cy="55" r="55" fill="#ff5916"/><path class="fil1" d="M13 63v-8c0-12 4-22 12-30s18-12 30-12h7c2 0 5 1 7 2l-1 1c-2-1-4-1-6-2h-7c-11 0-22 5-29 12S14 44 14 55v4c0 1 0 2 1 4h-2zm70 24c-4 3-8 6-13 8s-10 2-15 2c-7 0-13-1-19-4s-11-7-15-12l1-1c4 5 9 9 15 12 5 3 11 4 18 4 5 0 10-1 14-3 5-1 9-4 13-7l1 1zm0-64c5 4 8 9 11 15 2 5 3 11 3 17 0 3 0 6-1 9 0 3-1 6-2 9l-2-1c2-3 2-5 3-8s1-6 1-9c0-6-1-12-3-17-3-5-6-10-10-13v-2z"/><path class="fil1" d="M43 103c-11-3-20-9-27-18C9 77 5 66 5 55c0-8 2-15 5-21 3-7 8-13 14-17l1 1c-6 4-10 10-14 16-2 7-4 14-4 21 0 11 4 21 10 30 7 8 16 14 26 17v1zm61-51s0 1 1 1v2c0 11-4 21-10 29-6 9-15 15-25 18l-1-1c10-3 19-9 25-18 6-7 9-17 9-28v-3h1zM41 8c2-1 4-2 7-2 2 0 5-1 7-1 10 0 19 3 27 8s14 13 18 21l-1 1c-4-9-10-16-18-21-8-4-16-7-26-7h-7c-2 1-5 1-7 2V8zm12 33h4v17h-4V45c-1 0-3 1-3 2h-1v-3l2-2 2-1zm21-1c0-1-1-2-1-3-1-1-3 0-5-1s-1-3-1-4c-1-1-1-2-2-2-2-1-3 1-4 1-2 1-3-1-4-2 0-1-1-1-1-1-1-1-2 0-3 0-1 1-1 3-3 3-2 1-3-1-4-1s-2 0-2 1c-1 1 0 3-1 5-2 2-4 1-5 1s-1 1-2 1c0 2 2 3 2 5s-2 3-3 3c0 1-1 1-1 2v2c1 1 3 1 4 3 0 2-1 3-2 5 0 1 1 1 1 2 1 1 3 0 5 1 0 0 1 1 1 2s0 4 2 4c2 1 3-1 4-1 4 0 3 3 5 4 2 0 3-2 4-3s2-2 4-1c1 1 3 2 4 1 1-2 0-4 1-5s1-1 2-1c1-1 4 0 5-2 0-2-2-3-2-5s1-2 3-3c0-1 1-1 1-2 1-2-1-2-2-3l-2-2c0-2 1-3 2-4zM61 71h-1l3 3c1 1 9 8 9 9V72h11l-9-8h-1c-1 1-2 1-2 1 0 4-3 7-7 7-2 0-3-1-3-1z"/><path class="fil1" d="M27 72h11v10l11-11h-2c-3 2-8-1-8-6-3 0-2-1-4-1l-8 8z"/></g></g></svg>