<svg xmlns="http://www.w3.org/2000/svg" width="400" height="200" shape-rendering="geometricPrecision" text-rendering="geometricPrecision" image-rendering="optimizeQuality" fill-rule="evenodd" clip-rule="evenodd"><defs><style>.fil0,.fil1{fill:#ff6f36}.fil0{fill-rule:nonzero}</style></defs><g id="Слой_x0020_1"><g id="_2067293805312"><path class="fil0" d="M98 84l-4-1-2 9-6-1 6-25 10 2c3 0 5 2 6 3 2 2 2 4 2 7-1 1-2 3-3 4s-2 1-4 2l4 12h-1l-5-1-3-11zm-3-5l4 1c2 0 3 0 3-1 1 0 2-1 2-2 1-1 0-2 0-3-1-1-2-2-3-2l-4-1-2 8zm31 10l-10-3-2 7 12 3-1 4-17-4 6-26 17 4-1 5-12-3-1 6 10 2-1 5zm13-13l3 21 11-18 7 2-6 26-6-2 2-7 3-12-11 18-4-1-2-21-3 13-1 7-5-2 6-25 6 1zm42 24c-1 3-2 5-3 6-2 2-3 3-5 4s-4 1-6 0c-2 0-4-1-6-3-1-1-2-3-3-5 0-2 0-4 1-7v-1c0-3 1-5 3-7 1-1 3-2 5-3s4-1 6 0c2 0 4 1 5 3 2 1 2 3 3 5v8zm-6-2c1-3 1-5 0-7 0-1-1-3-3-3s-4 0-5 1-2 3-3 6v1c-1 3-1 5 0 7 1 1 2 2 4 3 1 0 3 0 4-1 2-2 2-3 3-6v-1zm15 6l-3 3-2 7-5-1 6-26 5 1-3 12 4-3 8-7 7 2-12 9 6 17-6-2-5-12zm32 19l-5-2-7-19-3 17-6-1 6-26 5 1 7 20 4-17 5 1-6 26zm19-2l-9-2-3 5-6-1 16-24 5 1 3 28-5-1-1-6zm-7-6l7 2-1-11-6 9z"/><path class="fil1" d="M75 62c-2-6 7 0 9-5 4-8-4-6-8-8 1 0 4-1 6-2 3-1 2-2 6 0 12 6 11 4 10 10-1 5-1 4-7 6-5 1-3 1-9 0-2 0-6 0-7-1z"/><path class="fil0" d="M54 47l29 6-1 4c-1 0-2 1-3 0v-2l-11-2-4 24 10 2 3-14h3l-3 18-21-4 2-3 3 1 5-25-11-2-5 23h-3l6-26h1z"/><path class="fil1" d="M59 71c-4-6-5 5-11 4-8-2-2-7 0-12-1 1-4 2-6 3-3 2-3 1-4 6-4 13-4 11 1 14 5 2 4 2 9-1 5-4 3-2 7-8 1-1 3-4 4-6z"/><path class="fil0" d="M55 81l25 6 5-22 3 1-6 25-29-7 2-3zm310 61l-2 8c0 2-1 3-2 3-1 1-2 1-4 1-1-1-2-1-3-2s-1-2-1-4l2-8h3l-2 9v2s1 0 2 1c1 0 2-1 2-2l2-9 3 1zm-18 4h-2l-1 4h-3l3-13 5 1c1 1 2 1 3 2s1 2 1 3c-1 1-1 2-2 2 0 1-1 1-2 1l2 6-3-1-1-5zm-2-2h4l1-1v-2c-1 0-1 0-2-1h-2l-1 4zm-9 3h1c0-1 1-1 1-1l1 1v1s0 1-1 1h-1l-1-1v-1zm-14-12l-3 2-2 7-5-1 6-25 5 1-3 11 3-2 9-7 6 1-12 10 6 16-6-2zm-16 0c1-1 0-2 0-3-1 0-2-1-3-2-2-1-3-2-4-3-3-2-4-5-3-7 0-2 1-3 2-4s2-1 4-1c1-1 3-1 5 0 2 0 3 1 4 2 2 1 3 2 3 3 1 2 1 3 0 5l-5-1v-3c-1-1-2-2-3-2h-3c-1 0-2 1-2 2s0 2 1 2c0 1 2 2 3 3 3 1 5 3 6 5 1 1 1 3 1 5-1 2-2 4-4 5-2 0-4 1-7 0-2-1-4-1-5-2-2-1-3-3-3-4-1-2-1-3 0-5l5 1c-1 3 0 5 4 6h3c1-1 1-1 1-2zm-31-27l3 20 10-17 7 1-6 26-5-1 2-7 3-12-11 17-4-1-2-20-3 12-1 7-5-1 5-26zm-15 14l-10-2 1-5 10 3z"/></g></g></svg>