<svg xmlns="http://www.w3.org/2000/svg" width="300" height="300" shape-rendering="geometricPrecision" text-rendering="geometricPrecision" image-rendering="optimizeQuality" fill-rule="evenodd" clip-rule="evenodd"><defs><style>.fil0{fill:#ff6f36}</style></defs><g id="Слой_x0020_1"><g id="_2333953382096"><path class="fil0" d="M97 85c7-1 12 4 12 10 0 4 0 7-2 9s-4 4-7 4c-4 1-6 0-9-2-1-2-3-4-3-8s0-6 2-9c1-2 4-3 7-4zM71 57c4-1 7 0 9 2 1 2 3 5 3 8 0 4 0 6-2 9-2 2-4 3-7 4-7 0-12-4-12-11 0-3 0-6 2-9 2-2 4-3 7-3zm0 44s6-9 6-10c2-3 4-6 6-10 2-3 4-7 7-10l4-8c1 0 1-1 2-2l4 3s-6 9-6 10c-2 3-4 6-6 10L78 99c0 1-1 2-1 2-1 1-1 2-2 3l-4-3zm3-61s-7-2-8-2c-1-1-2-1-4-1 0-1-1-1-2-1 0 0-1-1-2-1v2c0 1-1 2-1 2l-1 6c0 1 0 2-1 2v5h-4c-1 1-2 1-2 1l-10 2h-1c0 1 5 16 5 16v1c-1 0-2 1-3 2l-4 4-3 3c-1 0-2 1-2 1 0 1 0 1 1 1l4 4 1 1 2 2c1 1 4 3 4 4v2s-1 1-1 2l-2 8c-1 1-2 3-2 4 1 0 9 2 10 2s6 1 7 1v2l3 13v2c1 0 13-4 14-5 3-1 2-1 3 1h1l1 2 1 1 5 5 1 1 1 2h1v-1c1 0 1 0 1-1l1-1 1-1 1-1 3-3v-1l4-3s15 5 16 5c0-1 2-11 2-13 1 0 1-1 1-2v-1c0-1 0-1 2-1l10-2c1-1 4-1 5-1 0-1-3-8-3-8 0-1-2-8-2-8 0-1 1-2 1-2h1l4-4 1-1 4-4s1 0 1-1h-1l-5-5c-1-1-2-2-3-2l-3-4v-2l3-10c1-1 2-3 2-4-1 0-17-3-17-3v-1c-1-5-2-9-3-14v-2c-1 0-8 3-8 3-1 0-8 2-8 2h-1l-4-4c0-1-3-4-4-5l-2-2c0-1 0-1-1-1 0 0 0 1-1 1v1l-3 3-1 1-6 6z"/><path class="fil0" d="M97 90c-4 1-3 5-3 8 0 6 6 7 8 3 1-2 1-3 1-5s0-3-1-4-3-2-5-2zM72 61c-2 1-3 2-3 3-1 1-1 3-1 5s0 3 1 4c1 2 6 2 7-1 1-1 1-3 1-5 0-1 0-3-1-4s-2-2-4-2zm172 181c4 0 7 2 7 6 0 2 0 4-1 5s-2 2-4 3c-2 0-4-1-5-2s-2-2-2-4c0-3 0-4 1-6 1-1 2-2 4-2zm-14-16c2-1 3 0 4 1s2 3 2 5 0 3-1 5c-1 1-2 2-4 2-4 0-7-2-7-6 0-2 0-4 1-5s3-2 5-2zm-1 26c0-1 4-6 4-6l3-6c2-2 3-4 4-6l3-4c0-1 0-1 1-2l2 2s-3 5-3 6c-2 2-3 3-4 5l-6 9v2c-1 0-1 1-1 1l-3-1zm2-36l-4-1c-1 0-2-1-3-1h-1l-1-1v2l-1 1v3c0 1-1 1-1 1v3h-2c-1 0-1 1-2 1l-5 1h-1l3 9c0 1-1 1-1 2-1 0-2 2-3 2l-2 2s-1 0-1 1h1l2 2 1 1 1 1 2 2v2l-2 5-1 2c1 0 6 1 6 2h4v2l2 7v1s7-2 8-3h2v1l1 1h1c0 1 2 3 2 3l1 1s0 1 1 1v-1l1-1h1v-1l2-2 2-2 9 3c0-1 2-6 2-7v-2c0-1 0-1 2-1l5-1c1 0 2-1 3-1l-2-4c0-1-1-5-1-5l1-1 2-2c1 0 1-1 1-1l3-2v-1l-4-3-1-1-2-2v-1l2-6 1-2c-1 0-10-2-10-2v-1c0-2-1-5-1-7 0-1-1-1-1-2l-4 2c-1 0-5 1-5 1l-2-2-3-3-1-1v-1c-1 0-1 1-1 1l-2 2-1 1-3 3z"/><path class="fil0" d="M245 245c-3 1-3 3-3 5 0 3 4 4 5 1 1-1 1-2 1-3s0-2-1-2c0-1-1-1-2-1zm-15-16c-1 0-2 0-2 1-1 1-1 2-1 3s1 2 1 2c1 1 4 2 4 0 1-1 1-2 1-3s0-2-1-3c0 0-1-1-2 0z"/></g></g></svg>