<svg xmlns="http://www.w3.org/2000/svg" width="32" height="32" shape-rendering="geometricPrecision" text-rendering="geometricPrecision" image-rendering="optimizeQuality" fill-rule="evenodd" clip-rule="evenodd"><defs><style>.fil0{fill:#ff5916}.fil1,.fil2{fill:#000;fill-rule:nonzero}.fil2{fill:#ff5916}</style></defs><g id="Слой_x0020_1"><g id="_2504723314848"><path class="fil0" d="M20 12c-2-3 3-1 4-4 1-5-3-3-5-3 0-1 2-2 3-2 1-1 1-2 3-1 8 1 7 1 7 4s0 3-3 4c-3 2-1 1-5 2h-4z"/><path class="fil1" d="M6 6h17v2c0 1-1 1-2 1V7h-6v15h7v-9h1l1 10-12 1v-2h2L13 7 7 8v13s0 1-1 0L5 6h1z"/><path class="fil1" d="M6 5h18v4h-3V8h-5v13h5v-8l3-1v12H11l1-3h1V8H8v14H5V6l1-1zm16 1L6 7v14h1L6 7h8v15h-1v1h10V13l-1 1v8h-7L14 7h8v1-2z"/><path class="fil0" d="M12 19c-3-3-2 4-5 3-5 0-2-3-2-6l-3 3c-1 1-2 0-2 3 0 8-1 7 3 8 3 1 2 1 5-2 2-3 1-1 3-5 0-1 1-3 1-4z"/><path class="fil2" d="M11 25h15V12h2v15H10l1-2z"/><path class="fil2" d="M11 25h14V12h3v15H9l2-2zm15 1H11h16V13h-1v13z"/></g></g></svg>