<svg xmlns="http://www.w3.org/2000/svg" width="490" height="90" shape-rendering="geometricPrecision" text-rendering="geometricPrecision" image-rendering="optimizeQuality" fill-rule="evenodd" clip-rule="evenodd"><defs><style>.fil0{fill:#ff5916}.fil3{fill:#000;fill-rule:nonzero}</style></defs><g id="Слой_x0020_1"><g id="_2294123371216"><path class="fil0" d="M60 33c-6-10 11-3 13-13 4-14-8-8-16-9 1-2 6-4 9-6 5-3 3-4 11-2 22 4 19 2 20 12 0 9 1 8-9 12-9 5-4 3-16 5-3 1-9 2-12 1z"/><path d="M19 15l51-1v8c-2 1-3 1-5 1v-4H46l1 43h19l-1-26 5-1 1 32-35 1 2-5h4l-1-44-19 1 1 41c-2 0-2 1-5 0l-1-46h2z" fill-rule="nonzero"/><path class="fil0" d="M37 54c-9-8-7 11-16 10-16 0-7-10-6-19l-8 8c-5 4-5 2-5 10-2 24-3 21 7 23 9 3 8 4 15-5 7-8 4-4 9-15 1-3 4-8 4-12z"/><path fill="#ff5916" fill-rule="nonzero" d="M34 73h44V34h5v44H31l2-5z"/><path class="fil3" d="M489 55v14c0 3 0 5-2 6-2 2-4 2-6 2-3 0-5 0-7-2-1-1-2-3-2-6V55h5v14c0 2 0 3 1 4 1 0 1 1 3 1s4-2 4-5V55h4zm-28 14h-4v8h-5V55h9c2 0 4 0 6 1 1 1 2 3 2 5s-1 3-1 4l-3 3 5 9h-5l-4-8zm-4-4h4c1 0 2 0 2-1 1 0 1-1 1-2s0-2-1-3c0 0-1-1-2-1h-4v7zm-14 10c0-1 0-2 1-2l1-1c1 0 2 1 2 1 1 0 1 1 1 2 0 0 0 1-1 1 0 1-1 1-2 1 0 0-1 0-1-1-1 0-1-1-1-1zm1-39l-17 41h-10l18-39h-23v-7h32zm-37 0l-17 41h-10l18-39h-23v-7h32z"/><path d="M355 70c1 0 2 0 3-1 1 0 2-1 3-2v-6h-4c-4 0-7 2-7 5 0 2 0 3 1 3 1 1 2 1 4 1zm7 7c0-1-1-2-1-3-2 2-5 3-8 3-4 0-6-1-9-3-2-2-3-4-3-7s1-6 4-8 7-3 12-3h4v-2c0-2-1-3-1-4-1-1-3-1-4-1-2 0-3 0-4 1s-1 2-1 3h-9c0-2 0-4 2-6 1-1 3-2 5-3s4-2 7-2c4 0 8 1 10 3 3 2 4 5 4 9v15c0 3 0 5 1 7v1h-9zm-47-34v4c3-3 6-5 10-5 3 0 6 1 8 3s3 6 3 10v22h-9V55c0-2-1-3-2-4s-2-2-4-2-4 2-6 4v24h-9V43h9zm-30 20l-4 3v11h-9V29h9v26l2-2 9-10h11l-13 14 14 20h-11zm-19-8c0 4-1 8-2 12-2 3-4 6-7 8-3 1-7 2-10 2-4 0-7-1-10-2-3-2-6-5-7-8-2-4-3-7-3-12v-2c0-5 1-9 3-12 1-3 4-6 6-8 3-2 7-3 11-3 3 0 7 1 10 3s5 5 7 8c1 3 2 7 2 12v2zm-10-2c0-5 0-9-2-11-2-3-4-4-7-4-4 0-6 1-8 4-1 2-2 6-2 11v2c0 5 1 8 2 11 2 2 4 4 8 4 3 0 5-2 7-4 2-3 2-6 2-11v-2z" fill="#ff5916" fill-rule="nonzero"/><path class="fil3" d="M181 43v4c3-3 6-5 10-5s7 2 9 5c2-3 6-5 10-5s7 1 8 3c2 2 3 6 3 10v22h-9V55c0-2 0-3-1-4s-2-2-4-2c-3 0-5 2-6 4v24h-9V55c0-2 0-3-1-4s-2-2-4-2-4 2-5 4v24h-9V43h8zm-29 6c-1 0-3 1-4 2s-2 3-2 5h12c0-2 0-4-1-5s-3-2-5-2zm1 28c-5 0-9-1-12-4s-4-7-4-12v-1c0-4 0-7 2-9 1-3 3-5 5-7 3-1 5-2 8-2 5 0 9 2 11 5 3 2 4 7 4 12v4h-21c0 2 1 4 2 5 2 1 4 2 6 2 4 0 6-1 8-4l5 5c-2 2-4 4-6 5s-5 1-8 1zm-46-25h7c3 0 5 0 6-1 1-2 2-3 2-5 0-3-1-4-2-5-1-2-3-2-6-2h-7v13zm7 8h-7v17h-9V31h16c6 0 10 1 13 4 3 2 4 5 4 10 0 3 0 6-2 8-1 2-3 3-6 5l10 18v1h-10l-9-17z"/></g></g></svg>