<svg xmlns="http://www.w3.org/2000/svg" width="80" height="80" shape-rendering="geometricPrecision" text-rendering="geometricPrecision" image-rendering="optimizeQuality" fill-rule="evenodd" clip-rule="evenodd"><path d="M5 64l21-21 6 6c2 2 5 3 8 3s5-1 8-3l6-5v-1c1 0 3 2 3 3l8 8 10 10c0 1-1 2-2 2H7c-1 0-1 0-2-1v-1zm0-6V22v1h1l2 2 7 7c0 1 1 1 1 1 0 1 6 7 7 7L5 58zm53-18s4-5 5-6c3-3 6-6 9-8l1-1c0-1 1-1 1-1 0-1 1-1 1-2v35L58 40zM5 16c0-1 1-2 2-2h66c1 0 2 1 2 2l-2 2-1 1-25 25-1 1c-2 2-5 2-8 2-1 0-3-1-4-2 0-1-29-29-29-29zm-5 0v48c0 1 1 3 1 3v1c2 2 4 3 6 3h66c3 0 5-2 6-4l1-1V16c0-1 0-2-1-3 0-1-1-2-3-3-1 0-2-1-3-1H7c-3 0-5 2-6 4 0 0-1 2-1 3z" fill="#fff"/></svg>