<svg xmlns="http://www.w3.org/2000/svg" width="80" height="80" shape-rendering="geometricPrecision" text-rendering="geometricPrecision" image-rendering="optimizeQuality" fill-rule="evenodd" clip-rule="evenodd"><defs><style>.fil0{fill:#fff}</style></defs><g id="Слой_x0020_1"><g id="_2066986827616"><path class="fil0" d="M10 15v6l1 1v9c1 2 1 5 2 6v1c0 2 1 4 1 6 1 2 2 3 2 5 1 1 2 3 3 5l3 4v1l4 5 1 1c0 1 1 1 1 1v1h1v1h1v1h1l1 2 3 2c0 1 3 2 3 3h1l3 2c1 1 3 1 4 1 0 1 2 1 3 1h6l2-1c1 0 1 0 1-1h2l1-1h1c1-1 3-1 4-2 0 0-3-3-4-3l-4-4-4-3c-1-1-2-1-3-2l-2-1c0-1-1-2-1-2h-1l-1 1c-2 1-3 1-5 0-1-1-2-1-2-2h-1l-1-2c0-1 0-1-1-1l-1-2v-2c-1 0-1-1-2-2 0-1-1-2-1-3l-1-2-1-1-4-8c0-1-1-3-2-3v-6c1-1 1-1 1-2h1c0-1 1-1 1-1 1 0 1-1 1-1V0h-2c-2 0-5 1-7 2l-1 1h-1c-1 1-1 1-2 1 0 1-1 2-2 3s-1 1-1 2c-1 1-1 3-2 4v2z"/><path class="fil0" d="M49 59l8 6 1 1h1s0 1 1 1l1 1 1 1 4 3 1 1c1 0 1 1 1 1v-2c1 0 2-3 2-4s0-1-1-1v-1l-4-3-4-3c0-1-1-1-1-1-1-1-2-2-3-2 0-1-2-1-2-1h-1l-5 3zM30 0c-1 0 0 0 0 0v23c1 1 4-1 5-2l1-1V3c-1-2-4-3-6-3z"/></g></g></svg>